<svg width="432" height="420" viewBox="0 0 432 420" fill="none" xmlns="http://www.w3.org/2000/svg">
<path d="M63.7562 386.942C147.838 430.867 284.163 430.868 368.245 386.943C452.328 343.016 452.328 271.8 368.245 227.874C284.162 183.948 147.838 183.948 63.7552 227.873C-20.3268 271.799 -20.3268 343.017 63.7562 386.942Z" fill="#F5F5F5"/>
<path d="M169.953 348.791C192.608 359.59 229.338 359.59 251.993 348.791C274.648 337.995 274.648 320.488 251.993 309.689C229.338 298.893 192.608 298.893 169.953 309.689C147.298 320.488 147.298 337.995 169.953 348.791Z" fill="#EBEBEB"/>
<path d="M366.164 322.06L285.193 368.81C283.997 369.5 282.059 369.5 280.863 368.81L179.578 310.334C178.382 309.644 178.382 308.524 179.578 307.834L260.552 261.084C261.748 260.394 263.686 260.394 264.882 261.084L366.164 319.56C367.359 320.251 367.359 321.37 366.164 322.06Z" fill="#EBEBEB"/>
<path d="M388.701 65.073V86.542C388.701 86.542 379.876 90.67 363.667 90.67C347.466 90.67 338.657 86.535 338.657 86.535V65.485L355.538 17.714C355.316 19.211 356.196 20.748 358.176 21.889C361.329 23.711 364.367 23.917 367.908 22.499C368.36 22.325 368.779 22.119 369.176 21.889C371.275 20.677 372.139 19.021 371.759 17.445L388.701 65.073Z" fill="#F3541C"/>
<path opacity="0.5" d="M388.701 65.073V86.542C388.701 86.542 379.876 90.67 363.667 90.67C347.466 90.67 338.657 86.535 338.657 86.535V65.485L355.538 17.714C355.316 19.211 356.196 20.748 358.176 21.889C361.329 23.711 364.367 23.917 367.908 22.499C368.36 22.325 368.779 22.119 369.176 21.889C371.275 20.677 372.139 19.021 371.759 17.445L388.701 65.073Z" fill="white"/>
<path d="M386.762 215.567C385.541 217.255 383.745 218.838 381.366 220.212C371.591 225.856 355.742 225.856 345.967 220.212C343.587 218.838 341.792 217.255 340.571 215.567C339.377 213.916 338.739 212.164 338.653 210.404V220.73V221.552C338.827 225.112 341.261 228.642 345.967 231.36C355.742 237.004 371.591 237.004 381.366 231.36C386.254 228.538 388.697 224.84 388.697 221.141V209.993C388.697 211.891 388.049 213.788 386.762 215.567Z" fill="#F3541C"/>
<path d="M386.762 204.419C385.541 206.107 383.745 207.69 381.366 209.064C380.794 209.394 380.197 209.701 379.586 209.993C370.364 214.393 356.97 214.393 347.748 209.993C347.137 209.701 346.54 209.394 345.968 209.064C343.588 207.69 341.793 206.108 340.572 204.419C339.378 202.768 338.74 201.016 338.654 199.256V209.582V210.404C338.74 212.164 339.378 213.916 340.572 215.567C341.793 217.255 343.589 218.838 345.968 220.212C355.743 225.856 371.592 225.856 381.367 220.212C383.747 218.838 385.542 217.256 386.763 215.567C388.05 213.788 388.698 211.891 388.698 209.993V198.845C388.697 200.743 388.049 202.64 386.762 204.419Z" fill="#FFEDE7"/>
<path d="M386.762 193.272C385.541 194.96 383.745 196.543 381.366 197.917C380.794 198.247 380.197 198.554 379.586 198.846C370.364 203.246 356.97 203.246 347.748 198.846C347.137 198.554 346.54 198.247 345.968 197.917C343.588 196.543 341.793 194.96 340.572 193.272C339.378 191.621 338.74 189.869 338.654 188.109V198.435V199.257C338.74 201.017 339.378 202.769 340.572 204.42C341.793 206.108 343.589 207.691 345.968 209.065C346.54 209.395 347.137 209.702 347.748 209.994C356.97 214.394 370.365 214.394 379.586 209.994C380.197 209.702 380.794 209.395 381.366 209.065C383.746 207.691 385.541 206.109 386.762 204.42C388.049 202.641 388.697 200.744 388.697 198.846V187.698C388.697 189.596 388.049 191.492 386.762 193.272Z" fill="#F3541C"/>
<path d="M338.653 65.485V187.286V188.108C338.739 189.868 339.377 191.62 340.571 193.271C341.792 194.959 343.588 196.542 345.967 197.916C346.539 198.246 347.136 198.553 347.747 198.845C350.056 199.947 352.626 200.772 355.327 201.322L350.802 72.094L338.653 65.485Z" fill="#F3541C"/>
<path d="M376.538 72.093L372.013 201.321C374.711 200.771 377.279 199.946 379.586 198.845C380.197 198.553 380.794 198.246 381.366 197.916C383.746 196.542 385.541 194.96 386.762 193.271C388.049 191.492 388.697 189.595 388.697 187.697V65.074L376.538 72.093Z" fill="#F3541C"/>
<path d="M338.653 65.485V187.286V188.108C338.739 189.868 339.377 191.62 340.571 193.271C341.792 194.959 343.588 196.542 345.967 197.916C346.539 198.246 347.136 198.553 347.747 198.845C350.056 199.947 352.626 200.772 355.327 201.322L350.802 72.094L338.653 65.485Z" fill="#FA7252"/>
<path d="M376.538 72.093L372.013 201.321C374.711 200.771 377.279 199.946 379.586 198.845C380.197 198.553 380.794 198.246 381.366 197.916C383.746 196.542 385.541 194.96 386.762 193.271C388.049 191.492 388.697 189.595 388.697 187.697V65.074L376.538 72.093Z" fill="#FF7D5F"/>
<path d="M350.803 72.094V200.079C352.254 200.582 353.765 201.004 355.328 201.322C358.022 201.87 360.846 202.145 363.67 202.145C366.494 202.145 369.318 201.87 372.012 201.321C373.576 201.002 375.087 200.58 376.537 200.077V72.093L350.803 72.094Z" fill="#F55E29"/>
<path d="M369.174 21.889C368.778 22.119 368.358 22.325 367.906 22.499C364.365 23.917 361.327 23.711 358.174 21.889C356.194 20.748 355.314 19.211 355.536 17.714L361.297 1.584C361.741 0.523 362.7 0 363.666 0H363.674C364.641 0 365.607 0.523 366.051 1.576L371.749 17.421C371.749 17.429 371.757 17.437 371.757 17.445C372.137 19.021 371.273 20.677 369.174 21.889Z" fill="#FA5C37"/>
<path d="M381.366 231.359C372.966 236.209 360.092 236.879 350.43 233.394C349.888 233.199 349.36 232.985 348.841 232.764C348.599 232.661 348.352 232.565 348.116 232.456C347.375 232.116 346.654 231.755 345.968 231.36C341.262 228.643 338.828 225.112 338.654 221.552V251.903C338.466 255.737 340.9 259.606 345.968 262.533C346.572 262.882 347.2 263.208 347.847 263.514C348.089 263.628 348.346 263.724 348.592 263.832C349.006 264.013 349.416 264.2 349.845 264.364C350.176 264.491 350.521 264.597 350.859 264.714C351.22 264.838 351.573 264.971 351.942 265.083C352.344 265.206 352.758 265.308 353.169 265.418C353.486 265.503 353.798 265.596 354.121 265.673C354.591 265.785 355.071 265.875 355.549 265.97C355.82 266.023 356.087 266.086 356.361 266.134C356.901 266.229 357.449 266.302 357.997 266.376C358.214 266.405 358.428 266.442 358.646 266.467C359.255 266.539 359.869 266.589 360.484 266.634C360.643 266.646 360.8 266.664 360.959 266.674C361.629 266.716 362.3 266.736 362.973 266.747C363.078 266.749 363.182 266.755 363.287 266.756C364.009 266.762 364.729 266.747 365.45 266.717C365.505 266.715 365.559 266.715 365.614 266.712C366.375 266.678 367.131 266.622 367.885 266.548C367.899 266.547 367.912 266.546 367.925 266.545C372.568 266.084 377.018 264.86 380.699 262.881C380.919 262.763 381.152 262.657 381.366 262.533C386.254 259.711 388.698 256.013 388.698 252.314V221.141C388.698 224.839 386.254 228.538 381.366 231.359Z" fill="#FA5C37"/>
<path d="M79.483 249.079C76.591 248.349 61.16 239.565 59.594 238.499C58.027 237.432 54.918 235.223 54.918 231.414C54.918 228.036 55.272 196.262 58.028 180.907C59.384 173.354 64.283 163.458 73.883 157.509C83.483 151.559 93.126 147.253 101.262 150.627C109.399 154.001 116.813 160.219 120.011 167.719C123.209 175.219 125.403 190.238 125.63 196.048C125.857 201.857 125.63 221.783 125.63 223.55C125.63 225.317 125.31 227.623 115.783 233.522C106.256 239.422 93.089 246.518 89.019 248.35C85.922 249.744 82.105 249.74 79.483 249.079Z" fill="#F3541C"/>
<path d="M77.1 161.637C76.223 162.143 73.68 160.889 73.298 160.261C72.916 159.633 72.819 154.181 74.715 151.168C76.612 148.155 88.473 142.613 91.403 143.022C94.332 143.43 96.481 145.722 96.846 146.498C97.211 147.274 97.61 152.345 96.846 153.38C96.082 154.415 93.375 152.824 93.138 152.378C92.9 151.932 94.031 148.235 92.117 147.462C90.38 146.761 82.13 150.268 78.758 153.095C77.299 154.318 77.372 157.374 77.435 158.886C77.499 160.396 77.545 161.38 77.1 161.637Z" fill="#F79978"/>
<path d="M74.7151 197.423C76.4201 180.907 79.4831 171.272 95.6351 164.08C111.786 156.888 118.046 163.013 120.337 168.519C123.357 176.241 125.411 190.436 125.63 196.046C125.857 201.855 125.63 221.781 125.63 223.548C125.63 225.315 125.31 227.621 115.783 233.52C106.256 239.42 93.0891 246.516 89.0191 248.348C85.9221 249.743 82.1051 249.739 79.4831 249.078C79.0821 248.977 78.4321 248.716 77.6181 248.347C72.5891 241.916 73.1591 212.498 74.7151 197.423Z" fill="#F79978"/>
<path d="M112.366 157.63C108.155 155.161 101.229 153.534 91.0749 158.059C72.9129 166.151 68.3039 176.281 66.4719 194.025C66.1359 197.279 65.6489 201.157 65.4389 205.33L63.9399 204.425C64.1519 199.923 64.5859 196.069 64.9669 192.593C66.9319 174.678 72.3419 164.775 89.6929 157.049C99.2949 152.773 105.613 153.335 109.788 155.437C110.584 156.049 111.331 156.65 112.366 157.63Z" fill="#E03B14"/>
<path d="M112.997 158.09C108.786 155.622 101.86 153.994 91.7058 158.518C73.5448 166.611 68.9348 176.74 67.1028 194.484C66.7668 197.738 66.2798 201.616 66.0698 205.789L64.5708 204.884C64.7828 200.382 65.2168 196.528 65.5978 193.053C67.5628 175.138 72.9728 165.235 90.3238 157.509C99.9258 153.233 106.414 153.943 110.59 156.045C111.386 156.656 111.963 157.11 112.997 158.09Z" fill="#F79978"/>
<path d="M107.121 173.785L101.633 170.654C101.07 170.333 100.351 170.528 100.028 171.09L94.3948 180.88C94.0718 181.442 94.2628 182.162 94.8238 182.489L100.245 185.65C100.805 185.976 101.522 185.787 101.847 185.226L107.552 175.383C107.877 174.822 107.684 174.106 107.121 173.785Z" fill="#E03B14"/>
<path d="M101.233 184.528L106.64 175.2C106.803 174.919 106.706 174.562 106.425 174.401L101.449 171.562C101.167 171.401 100.808 171.499 100.646 171.78L95.3019 181.068C95.1399 181.349 95.2359 181.709 95.5159 181.872L100.432 184.739C100.712 184.904 101.071 184.809 101.233 184.528Z" fill="#F79978"/>
<path d="M102.392 180.068C102.68 179.902 102.913 179.534 102.913 179.246V174.782C102.913 174.494 102.68 174.396 102.392 174.562C102.104 174.728 101.871 175.096 101.871 175.384V179.847C101.871 180.136 102.104 180.234 102.392 180.068Z" fill="#F3541C"/>
<path d="M99.4868 181.745C99.7748 181.579 100.008 181.211 100.008 180.923V176.46C100.008 176.172 99.7748 176.074 99.4868 176.24C99.1988 176.406 98.9658 176.774 98.9658 177.062V181.525C98.9658 181.813 99.1988 181.912 99.4868 181.745Z" fill="#F3541C"/>
<path d="M82.1989 211.379C82.1989 211.379 84.9229 213.622 86.8749 222.06C88.8259 230.497 90.0159 241.134 87.8579 242.407C85.6999 243.681 82.6319 241.012 81.8669 240.091C80.2969 238.201 80.6879 218.141 82.1989 211.379Z" fill="#E03B14"/>
<path d="M82.1987 211.379C82.1987 211.379 84.9227 213.622 86.8747 222.06C88.8257 230.497 90.0157 241.134 87.8577 242.407L120.9 222.946C123.058 221.672 123.589 210.501 121.638 202.064C120.353 196.505 117.985 193.867 116.519 192.714C115.838 192.178 114.899 192.12 114.152 192.56L82.1987 211.379Z" fill="#F3541C"/>
<path d="M115.818 193.988C117.401 194.774 120.079 196.919 121.29 202.634C121.672 204.438 121.037 206.196 119.938 206.973C118.838 207.75 95.2248 221.183 92.0938 223.049C89.3938 224.658 87.9878 222.519 87.3948 221.183H87.3928C86.4078 218.801 85.5298 216.95 84.7888 215.53C83.4058 212.375 82.1978 211.378 82.1978 211.378L113.67 194.084C114.327 193.698 115.136 193.65 115.818 193.988Z" fill="#E03B14"/>
<path d="M66.4852 206.755C66.4852 206.755 67.4332 210.438 67.3772 212.01C67.3642 212.373 66.8922 212.56 66.7482 212.564C65.9072 212.584 63.8632 211.311 63.6912 210.969C63.5182 210.627 64.5092 206.489 64.5092 206.489L66.4852 206.755Z" fill="#E03B14"/>
<path d="M67.5054 205.354C67.5054 204.301 66.6514 203.447 65.5984 203.447C64.5454 203.447 63.6914 204.301 63.6914 205.354C63.6914 206.407 64.5454 207.261 65.5984 207.261C66.6524 207.261 67.5054 206.407 67.5054 205.354Z" fill="#E03B14"/>
<path d="M91.4028 147.374C93.4938 147.173 95.4598 147.356 95.9638 149.46C96.4668 151.563 96.2838 153.453 95.9638 153.72C94.8698 153.68 93.3158 152.71 93.1378 152.377C92.8998 151.931 94.0308 148.234 92.1168 147.461C91.9418 147.391 91.6978 147.365 91.4028 147.374Z" fill="#E03B14"/>
<path d="M114.334 192.452C114.99 192.066 115.799 192.017 116.481 192.356C118.064 193.142 120.743 195.287 121.953 201.002C122.335 202.806 121.7 204.564 120.601 205.341C119.501 206.118 95.8882 219.551 92.7572 221.417C90.0572 223.026 88.6512 220.887 88.0582 219.551C84.7952 212.711 82.2002 211.379 82.2002 211.379L114.334 192.452Z" fill="#F3541C"/>
<path d="M108.669 308.793L82.1908 293.506C80.8778 292.748 79.8128 290.903 79.8128 289.387L79.7998 289.692C79.7998 288.175 80.8648 286.331 82.1778 285.573L135.429 254.829C136.742 254.071 138.872 254.071 140.186 254.829L166.664 270.116C167.978 270.874 169.042 272.719 169.042 274.235L169.055 273.93C169.055 275.447 167.99 277.291 166.677 278.049L113.426 308.793C112.112 309.552 109.982 309.552 108.669 308.793Z" fill="#4F64D9"/>
<path opacity="0.7" d="M108.669 308.793L82.1908 293.506C80.8778 292.748 79.8128 290.903 79.8128 289.387L79.7998 289.692C79.7998 288.175 80.8648 286.331 82.1778 285.573L135.429 254.829C136.742 254.071 138.872 254.071 140.186 254.829L166.664 270.116C167.978 270.874 169.042 272.719 169.042 274.235L169.055 273.93C169.055 275.447 167.99 277.291 166.677 278.049L113.426 308.793C112.112 309.552 109.982 309.552 108.669 308.793Z" fill="black"/>
<path d="M111.034 268.912L82.1778 285.572C80.8638 286.33 79.7998 288.175 79.7998 289.691L79.8128 289.386C79.8128 290.903 80.8778 292.747 82.1908 293.505L108.669 308.792C109.326 309.171 110.187 309.361 111.047 309.361L111.034 268.912Z" fill="#4F64D9"/>
<path opacity="0.7" d="M111.034 268.912L82.1778 285.572C80.8638 286.33 79.7998 288.175 79.7998 289.691L79.8128 289.386C79.8128 290.903 80.8778 292.747 82.1908 293.505L108.669 308.792C109.326 309.171 110.187 309.361 111.047 309.361L111.034 268.912Z" fill="black"/>
<path d="M82.1766 288.319L108.655 303.606C109.969 304.364 112.098 304.364 113.412 303.606L166.663 272.862C167.977 272.104 167.977 270.874 166.663 270.116L140.185 254.829C138.871 254.071 136.742 254.071 135.428 254.829L82.1766 285.573C80.8636 286.331 80.8636 287.56 82.1766 288.319Z" fill="#4F64D9"/>
<path opacity="0.5" d="M82.1766 288.319L108.655 303.606C109.969 304.364 112.098 304.364 113.412 303.606L166.663 272.862C167.977 272.104 167.977 270.874 166.663 270.116L140.185 254.829C138.871 254.071 136.742 254.071 135.428 254.829L82.1766 285.573C80.8636 286.331 80.8636 287.56 82.1766 288.319Z" fill="black"/>
<path d="M82.1768 283.293V285.827L109.661 301.695C110.51 302.185 111.556 302.185 112.405 301.695L166.662 270.37V267.751L111.034 294.717L82.1768 283.293Z" fill="#4F64D9"/>
<path d="M108.656 298.58L82.1778 283.293C80.8648 282.535 79.7998 280.69 79.7998 279.174V274.277C79.7998 272.76 80.8648 270.916 82.1778 270.158L135.429 239.414C136.742 238.656 138.872 238.656 140.186 239.414L166.664 254.701C167.978 255.459 169.042 257.304 169.042 258.82V263.717C169.042 265.234 167.977 266.993 166.664 267.751L113.413 298.58C112.099 299.339 109.969 299.339 108.656 298.58Z" fill="#4F64D9"/>
<path opacity="0.6" d="M108.656 298.58L82.1778 283.293C80.8648 282.535 79.7998 280.69 79.7998 279.174V274.277C79.7998 272.76 80.8648 270.916 82.1778 270.158L135.429 239.414C136.742 238.656 138.872 238.656 140.186 239.414L166.664 254.701C167.978 255.459 169.042 257.304 169.042 258.82V263.717C169.042 265.234 167.977 266.993 166.664 267.751L113.413 298.58C112.099 299.339 109.969 299.339 108.656 298.58Z" fill="black"/>
<path d="M111.034 253.497L82.1778 270.157C80.8638 270.915 79.7998 272.76 79.7998 274.276V279.173C79.7998 280.69 80.8648 282.534 82.1778 283.292L108.656 298.579C109.313 298.958 110.173 299.148 111.034 299.148V253.497Z" fill="#4F64D9"/>
<path opacity="0.7" d="M111.034 253.497L82.1778 270.157C80.8638 270.915 79.7998 272.76 79.7998 274.276V279.173C79.7998 280.69 80.8648 282.534 82.1778 283.292L108.656 298.579C109.313 298.958 110.173 299.148 111.034 299.148V253.497Z" fill="black"/>
<path d="M82.1766 272.904L108.655 288.191C109.969 288.949 112.098 288.949 113.412 288.191L166.663 257.447C167.977 256.689 167.977 255.459 166.663 254.701L140.185 239.414C138.871 238.656 136.742 238.656 135.428 239.414L82.1766 270.158C80.8636 270.916 80.8636 272.145 82.1766 272.904Z" fill="#4F64D9"/>
<path opacity="0.5" d="M82.1766 272.904L108.655 288.191C109.969 288.949 112.098 288.949 113.412 288.191L166.663 257.447C167.977 256.689 167.977 255.459 166.663 254.701L140.185 239.414C138.871 238.656 136.742 238.656 135.428 239.414L82.1766 270.158C80.8636 270.916 80.8636 272.145 82.1766 272.904Z" fill="black"/>
<path d="M119.11 260.754C116.177 262.447 116.177 265.181 119.11 266.861C122.043 268.54 126.798 268.54 129.731 266.861C132.664 265.182 132.664 262.448 129.731 260.754C126.798 259.06 122.043 259.06 119.11 260.754Z" fill="#4F64D9"/>
<path d="M162.348 262.54C161.835 262.831 161.419 263.555 161.419 264.157C161.419 264.759 161.835 265.011 162.348 264.72C162.861 264.429 163.277 263.705 163.277 263.103C163.277 262.501 162.861 262.249 162.348 262.54Z" fill="#4F64D9"/>
<path d="M162.348 266.132C161.835 266.423 161.419 267.147 161.419 267.749C161.419 268.351 161.835 268.603 162.348 268.312C162.861 268.021 163.277 267.297 163.277 266.695C163.277 266.092 162.861 265.841 162.348 266.132Z" fill="#4F64D9"/>
<path d="M97.5679 328.952C97.4489 328.952 97.3279 328.922 97.2169 328.857L71.5619 313.97C70.1939 313.176 69.3779 311.758 69.3799 310.177C69.3819 308.595 70.2009 307.179 71.5699 306.388L90.3789 295.529C90.7119 295.336 91.1419 295.45 91.3339 295.785C91.5269 296.119 91.4129 296.547 91.0779 296.74L72.2689 307.599C71.3369 308.137 70.7799 309.102 70.7779 310.178C70.7769 311.255 71.3319 312.22 72.2629 312.761L97.9179 327.648C98.2519 327.842 98.3659 328.27 98.1719 328.603C98.0439 328.827 97.8089 328.952 97.5679 328.952Z" fill="#4F64D9"/>
<path d="M129.709 314.605L124.148 292.276C124.069 291.957 123.963 291.663 123.845 291.382L125.463 291.147L121.935 289.107C120.594 288.325 118.861 288.335 117.164 289.319L93.9716 302.765C90.9566 304.513 88.5136 308.756 88.5146 312.241L88.5207 339.084C88.5217 341.217 89.0446 342.69 90.1097 343.2L90.1026 343.202L93.4247 345.118L92.6217 343.002C92.6807 342.976 92.7356 342.957 92.7956 342.928C96.6096 341.107 97.9916 337.791 99.1306 334.498L103.54 321.755C104.679 318.461 107.518 314.687 109.88 313.325C112.242 311.963 115.556 313.313 117.283 316.34L119.497 320.221C120.246 321.534 121.296 322.528 122.438 323.122L125.824 325.087L124.963 323.752C125.652 323.738 126.322 323.567 126.929 323.216C129.307 321.841 130.552 317.987 129.709 314.605Z" fill="#4F64D9"/>
<path opacity="0.7" d="M129.709 314.605L124.148 292.276C124.069 291.957 123.963 291.663 123.845 291.382L125.463 291.147L121.935 289.107C120.594 288.325 118.861 288.335 117.164 289.319L93.9716 302.765C90.9566 304.513 88.5136 308.756 88.5146 312.241L88.5207 339.084C88.5217 341.217 89.0446 342.69 90.1097 343.2L90.1026 343.202L93.4247 345.118L92.6217 343.002C92.6807 342.976 92.7356 342.957 92.7956 342.928C96.6096 341.107 97.9916 337.791 99.1306 334.498L103.54 321.755C104.679 318.461 107.518 314.687 109.88 313.325C112.242 311.963 115.556 313.313 117.283 316.34L119.497 320.221C120.246 321.534 121.296 322.528 122.438 323.122L125.824 325.087L124.963 323.752C125.652 323.738 126.322 323.567 126.929 323.216C129.307 321.841 130.552 317.987 129.709 314.605Z" fill="black"/>
<path d="M123.845 291.382L125.463 291.147L121.935 289.107C120.594 288.325 118.861 288.335 117.164 289.319L93.9715 302.765C92.7515 303.473 91.6365 304.598 90.7275 305.907L96.2425 309.269L124.416 293.354L124.148 292.277C124.069 291.957 123.963 291.663 123.845 291.382Z" fill="#4F64D9"/>
<path opacity="0.5" d="M123.845 291.382L125.463 291.147L121.935 289.107C120.594 288.325 118.861 288.335 117.164 289.319L93.9715 302.765C92.7515 303.473 91.6365 304.598 90.7275 305.907L96.2425 309.269L124.416 293.354L124.148 292.277C124.069 291.957 123.963 291.663 123.845 291.382Z" fill="black"/>
<path d="M130.534 325.299C128.156 326.672 124.828 325.331 123.101 322.304L120.887 318.423C119.16 315.396 115.845 314.046 113.483 315.408C111.121 316.77 108.282 320.544 107.143 323.838L102.734 336.581C101.595 339.875 100.212 343.19 96.3987 345.011C93.5137 346.389 92.1256 344.652 92.1246 341.167L92.1187 314.323C92.1177 310.838 94.5616 306.596 97.5766 304.848L120.768 291.402C123.783 289.654 126.91 290.978 127.752 294.36L133.313 316.689C134.157 320.071 132.912 323.926 130.534 325.299Z" fill="#4F64D9"/>
<path opacity="0.6" d="M130.534 325.299C128.156 326.672 124.828 325.331 123.101 322.304L120.887 318.423C119.16 315.396 115.845 314.046 113.483 315.408C111.121 316.77 108.282 320.544 107.143 323.838L102.734 336.581C101.595 339.875 100.212 343.19 96.3987 345.011C93.5137 346.389 92.1256 344.652 92.1246 341.167L92.1187 314.323C92.1177 310.838 94.5616 306.596 97.5766 304.848L120.768 291.402C123.783 289.654 126.91 290.978 127.752 294.36L133.313 316.689C134.157 320.071 132.912 323.926 130.534 325.299Z" fill="black"/>
<path d="M121.541 299.133L122.121 302.424L124.684 300.778L125.264 304.069L122.701 305.717L123.283 309.008L120.723 310.651L120.141 307.362L117.581 309.006L117.001 305.715L119.561 304.071L118.981 300.78L121.541 299.133Z" fill="#263238"/>
<path d="M122.281 299.522L122.861 302.813L125.424 301.168L126.005 304.459L123.441 306.106L124.023 309.397L121.464 311.041L120.882 307.751L118.322 309.395L117.742 306.104L120.302 304.461L119.722 301.17L122.281 299.522Z" fill="#4F64D9"/>
<path d="M102.137 310.776C102.297 311.685 101.854 312.79 101.147 313.245C100.44 313.7 99.7366 313.332 99.5766 312.423C99.4166 311.514 99.8596 310.409 100.567 309.954C101.274 309.499 101.977 309.867 102.137 310.776Z" fill="#263238"/>
<path d="M103.298 317.358C103.458 318.267 103.015 319.372 102.308 319.827C101.601 320.282 100.898 319.914 100.738 319.005C100.578 318.096 101.021 316.991 101.728 316.536C102.435 316.082 103.138 316.449 103.298 317.358Z" fill="#263238"/>
<path d="M105.279 312.422C105.439 313.331 104.996 314.436 104.289 314.891C103.582 315.346 102.879 314.978 102.719 314.069C102.559 313.16 103.002 312.055 103.709 311.6C104.416 311.145 105.119 311.513 105.279 312.422Z" fill="#263238"/>
<path d="M100.161 315.713C100.321 316.622 99.8776 317.727 99.1706 318.182C98.4636 318.637 97.7606 318.269 97.6006 317.36C97.4406 316.451 97.8836 315.346 98.5906 314.891C99.2976 314.436 100.001 314.804 100.161 315.713Z" fill="#263238"/>
<path d="M102.19 310.81C102.35 311.719 101.907 312.824 101.2 313.279C100.493 313.734 99.7898 313.366 99.6298 312.457C99.4698 311.548 99.9128 310.443 100.62 309.988C101.327 309.533 102.03 309.901 102.19 310.81Z" fill="#263238"/>
<path d="M103.351 317.392C103.511 318.301 103.068 319.406 102.361 319.861C101.654 320.316 100.951 319.948 100.791 319.039C100.631 318.13 101.074 317.025 101.781 316.57C102.488 316.115 103.191 316.483 103.351 317.392Z" fill="#263238"/>
<path d="M105.332 312.455C105.492 313.364 105.049 314.469 104.342 314.924C103.635 315.379 102.932 315.011 102.772 314.102C102.612 313.193 103.055 312.088 103.762 311.633C104.469 311.178 105.172 311.547 105.332 312.455Z" fill="#263238"/>
<path d="M100.214 315.746C100.374 316.655 99.9308 317.76 99.2238 318.215C98.5168 318.67 97.8138 318.302 97.6538 317.393C97.4938 316.484 97.9368 315.379 98.6438 314.924C99.3508 314.47 100.054 314.838 100.214 315.746Z" fill="#263238"/>
<path d="M102.243 310.843C102.403 311.752 101.96 312.857 101.253 313.312C100.546 313.767 99.8426 313.399 99.6826 312.49C99.5226 311.581 99.9656 310.476 100.673 310.021C101.38 309.567 102.083 309.935 102.243 310.843Z" fill="#263238"/>
<path d="M103.404 317.425C103.564 318.334 103.121 319.439 102.414 319.894C101.707 320.349 101.004 319.981 100.844 319.072C100.684 318.163 101.127 317.058 101.834 316.603C102.541 316.149 103.244 316.517 103.404 317.425Z" fill="#263238"/>
<path d="M105.385 312.489C105.545 313.398 105.102 314.503 104.395 314.958C103.688 315.413 102.985 315.045 102.825 314.136C102.665 313.227 103.108 312.122 103.815 311.667C104.522 311.212 105.225 311.58 105.385 312.489Z" fill="#263238"/>
<path d="M100.267 315.78C100.427 316.689 99.9835 317.794 99.2765 318.249C98.5695 318.704 97.8665 318.336 97.7065 317.427C97.5465 316.518 97.9895 315.413 98.6965 314.958C99.4035 314.503 100.106 314.871 100.267 315.78Z" fill="#263238"/>
<path d="M102.296 310.877C102.456 311.786 102.013 312.891 101.306 313.346C100.599 313.801 99.8958 313.433 99.7358 312.524C99.5758 311.615 100.019 310.51 100.726 310.055C101.433 309.6 102.136 309.968 102.296 310.877Z" fill="#263238"/>
<path d="M103.457 317.459C103.617 318.368 103.174 319.473 102.467 319.928C101.76 320.383 101.057 320.015 100.897 319.106C100.737 318.197 101.18 317.092 101.887 316.637C102.594 316.182 103.297 316.55 103.457 317.459Z" fill="#263238"/>
<path d="M105.438 312.523C105.598 313.432 105.155 314.537 104.448 314.992C103.741 315.447 103.038 315.079 102.878 314.17C102.718 313.261 103.161 312.156 103.868 311.701C104.575 311.246 105.278 311.614 105.438 312.523Z" fill="#263238"/>
<path d="M100.32 315.814C100.48 316.723 100.037 317.828 99.3297 318.283C98.6227 318.738 97.9197 318.37 97.7597 317.461C97.5997 316.552 98.0427 315.447 98.7497 314.992C99.4567 314.537 100.16 314.905 100.32 315.814Z" fill="#263238"/>
<path d="M102.349 310.911C102.509 311.82 102.066 312.925 101.359 313.38C100.652 313.835 99.9485 313.467 99.7885 312.558C99.6285 311.649 100.072 310.544 100.779 310.089C101.486 309.634 102.189 310.002 102.349 310.911Z" fill="#263238"/>
<path d="M103.51 317.493C103.67 318.402 103.227 319.507 102.52 319.962C101.813 320.417 101.11 320.049 100.95 319.14C100.79 318.231 101.233 317.126 101.94 316.671C102.647 316.216 103.35 316.584 103.51 317.493Z" fill="#263238"/>
<path d="M105.491 312.556C105.651 313.465 105.208 314.57 104.501 315.025C103.794 315.48 103.091 315.112 102.931 314.203C102.771 313.294 103.214 312.189 103.921 311.734C104.628 311.279 105.331 311.647 105.491 312.556Z" fill="#263238"/>
<path d="M100.372 315.847C100.532 316.756 100.089 317.861 99.3825 318.316C98.6755 318.771 97.9725 318.403 97.8125 317.494C97.6525 316.585 98.0955 315.48 98.8025 315.025C99.5095 314.571 100.211 314.939 100.372 315.847Z" fill="#263238"/>
<path d="M102.402 310.944C102.562 311.853 102.119 312.958 101.412 313.413C100.705 313.868 100.002 313.5 99.8418 312.591C99.6818 311.682 100.125 310.577 100.832 310.122C101.539 309.668 102.242 310.036 102.402 310.944Z" fill="#263238"/>
<path d="M103.563 317.526C103.723 318.435 103.28 319.54 102.573 319.995C101.866 320.45 101.163 320.082 101.003 319.173C100.843 318.264 101.286 317.159 101.993 316.704C102.7 316.25 103.403 316.618 103.563 317.526Z" fill="#263238"/>
<path d="M105.544 312.59C105.704 313.499 105.261 314.604 104.554 315.059C103.847 315.514 103.144 315.146 102.984 314.237C102.824 313.328 103.267 312.223 103.974 311.768C104.681 311.313 105.384 311.681 105.544 312.59Z" fill="#263238"/>
<path d="M100.426 315.881C100.586 316.79 100.143 317.895 99.4357 318.35C98.7287 318.805 98.0257 318.437 97.8657 317.528C97.7057 316.619 98.1487 315.514 98.8557 315.059C99.5627 314.604 100.265 314.972 100.426 315.881Z" fill="#263238"/>
<path d="M102.454 310.978C102.614 311.887 102.171 312.992 101.464 313.447C100.757 313.902 100.054 313.534 99.8945 312.625C99.7345 311.716 100.177 310.611 100.884 310.156C101.591 309.701 102.294 310.069 102.454 310.978Z" fill="#263238"/>
<path d="M103.616 317.56C103.776 318.469 103.333 319.574 102.626 320.029C101.919 320.484 101.216 320.116 101.056 319.207C100.896 318.298 101.339 317.193 102.046 316.738C102.753 316.283 103.456 316.651 103.616 317.56Z" fill="#263238"/>
<path d="M105.597 312.623C105.757 313.532 105.314 314.637 104.607 315.092C103.9 315.547 103.197 315.179 103.037 314.27C102.877 313.361 103.32 312.256 104.027 311.801C104.734 311.346 105.437 311.715 105.597 312.623Z" fill="#263238"/>
<path d="M100.478 315.914C100.638 316.823 100.195 317.928 99.4884 318.383C98.7814 318.838 98.0784 318.47 97.9184 317.561C97.7584 316.652 98.2014 315.547 98.9084 315.092C99.6144 314.638 100.317 315.006 100.478 315.914Z" fill="#263238"/>
<path d="M102.508 311.012C102.668 311.921 102.225 313.026 101.518 313.481C100.811 313.936 100.108 313.568 99.9477 312.659C99.7877 311.75 100.231 310.645 100.938 310.19C101.645 309.735 102.348 310.103 102.508 311.012Z" fill="#263238"/>
<path d="M103.669 317.594C103.829 318.503 103.386 319.608 102.679 320.063C101.972 320.518 101.269 320.15 101.109 319.241C100.949 318.332 101.392 317.227 102.099 316.772C102.806 316.317 103.508 316.685 103.669 317.594Z" fill="#263238"/>
<path d="M105.65 312.657C105.81 313.566 105.367 314.671 104.66 315.126C103.953 315.581 103.25 315.213 103.09 314.304C102.93 313.395 103.373 312.29 104.08 311.835C104.787 311.38 105.49 311.748 105.65 312.657Z" fill="#263238"/>
<path d="M100.531 315.948C100.691 316.857 100.248 317.962 99.5407 318.417C98.8337 318.872 98.1307 318.504 97.9707 317.595C97.8107 316.686 98.2537 315.581 98.9607 315.126C99.6677 314.671 100.371 315.039 100.531 315.948Z" fill="#263238"/>
<path d="M102.56 311.045C102.72 311.954 102.277 313.059 101.57 313.514C100.863 313.969 100.16 313.601 100 312.692C99.8405 311.783 100.283 310.678 100.99 310.223C101.697 309.768 102.4 310.136 102.56 311.045Z" fill="#263238"/>
<path d="M103.722 317.627C103.882 318.536 103.439 319.641 102.732 320.096C102.025 320.551 101.322 320.183 101.162 319.274C101.002 318.365 101.445 317.26 102.152 316.805C102.859 316.35 103.561 316.718 103.722 317.627Z" fill="#263238"/>
<path d="M105.703 312.691C105.863 313.6 105.42 314.705 104.713 315.16C104.006 315.615 103.303 315.247 103.143 314.338C102.983 313.429 103.426 312.324 104.133 311.869C104.84 311.414 105.543 311.782 105.703 312.691Z" fill="#263238"/>
<path d="M100.583 315.982C100.743 316.891 100.3 317.996 99.5934 318.451C98.8864 318.906 98.1834 318.538 98.0234 317.629C97.8634 316.72 98.3064 315.615 99.0134 315.16C99.7204 314.705 100.423 315.073 100.583 315.982Z" fill="#263238"/>
<path d="M102.614 311.079C102.774 311.988 102.331 313.093 101.624 313.548C100.917 314.003 100.214 313.635 100.054 312.726C99.8937 311.817 100.337 310.712 101.044 310.257C101.751 309.802 102.454 310.17 102.614 311.079Z" fill="#263238"/>
<path d="M103.775 317.661C103.935 318.57 103.492 319.675 102.785 320.13C102.078 320.585 101.375 320.217 101.215 319.308C101.055 318.399 101.498 317.294 102.205 316.839C102.912 316.384 103.614 316.752 103.775 317.661Z" fill="#263238"/>
<path d="M105.756 312.724C105.916 313.633 105.473 314.738 104.766 315.193C104.059 315.648 103.356 315.28 103.196 314.371C103.036 313.462 103.479 312.357 104.186 311.902C104.893 311.448 105.596 311.816 105.756 312.724Z" fill="#263238"/>
<path d="M100.637 316.015C100.797 316.924 100.354 318.029 99.6466 318.484C98.9396 318.939 98.2366 318.571 98.0766 317.662C97.9166 316.753 98.3596 315.648 99.0666 315.193C99.7736 314.739 100.477 315.107 100.637 316.015Z" fill="#263238"/>
<path d="M102.666 311.112C102.826 312.021 102.383 313.126 101.676 313.581C100.969 314.036 100.266 313.668 100.106 312.759C99.9464 311.85 100.389 310.745 101.096 310.29C101.803 309.836 102.506 310.204 102.666 311.112Z" fill="#263238"/>
<path d="M103.828 317.694C103.988 318.603 103.545 319.708 102.838 320.163C102.131 320.618 101.428 320.25 101.268 319.341C101.108 318.432 101.551 317.327 102.258 316.872C102.965 316.418 103.667 316.786 103.828 317.694Z" fill="#263238"/>
<path d="M105.809 312.758C105.969 313.667 105.526 314.772 104.819 315.227C104.112 315.682 103.409 315.314 103.249 314.405C103.089 313.496 103.532 312.391 104.239 311.936C104.946 311.481 105.649 311.849 105.809 312.758Z" fill="#263238"/>
<path d="M100.689 316.049C100.849 316.958 100.406 318.063 99.6994 318.518C98.9924 318.973 98.2894 318.605 98.1294 317.696C97.9694 316.787 98.4124 315.682 99.1194 315.227C99.8264 314.772 100.529 315.14 100.689 316.049Z" fill="#263238"/>
<path d="M102.72 311.146C102.88 312.055 102.437 313.16 101.73 313.615C101.023 314.07 100.32 313.702 100.16 312.793C99.9996 311.884 100.443 310.779 101.15 310.324C101.857 309.869 102.56 310.237 102.72 311.146Z" fill="#263238"/>
<path d="M103.881 317.728C104.041 318.637 103.598 319.742 102.891 320.197C102.184 320.652 101.481 320.284 101.321 319.375C101.161 318.466 101.604 317.361 102.311 316.906C103.018 316.451 103.72 316.819 103.881 317.728Z" fill="#263238"/>
<path d="M105.862 312.792C106.022 313.701 105.579 314.806 104.872 315.261C104.165 315.716 103.462 315.348 103.302 314.439C103.142 313.53 103.585 312.425 104.292 311.97C104.999 311.515 105.702 311.883 105.862 312.792Z" fill="#263238"/>
<path d="M100.743 316.082C100.903 316.991 100.46 318.096 99.7526 318.551C99.0456 319.006 98.3426 318.638 98.1826 317.729C98.0226 316.82 98.4656 315.715 99.1726 315.26C99.8796 314.806 100.583 315.174 100.743 316.082Z" fill="#263238"/>
<path d="M121.541 299.133L122.28 299.522L119.721 301.17L118.981 300.78L121.541 299.133Z" fill="#263238"/>
<path d="M119.561 304.071L120.301 304.461L117.741 306.104L117.001 305.715L119.561 304.071Z" fill="#263238"/>
<path d="M122.861 302.813L122.724 302.038L124.685 300.778L125.424 301.168L122.861 302.813Z" fill="#263238"/>
<path d="M117.001 305.715L117.741 306.104L118.321 309.395L117.581 309.006L117.001 305.715Z" fill="#263238"/>
<path d="M120.724 310.651L121.464 311.041L120.882 307.751L120.28 308.138L120.724 310.651Z" fill="#263238"/>
<path d="M102.72 311.146C102.88 312.055 102.437 313.16 101.73 313.615C101.023 314.07 100.32 313.702 100.16 312.793C99.9996 311.884 100.443 310.779 101.15 310.324C101.857 309.869 102.56 310.237 102.72 311.146Z" fill="#4F64D9"/>
<path d="M103.881 317.728C104.041 318.637 103.598 319.742 102.891 320.197C102.184 320.652 101.481 320.284 101.321 319.375C101.161 318.466 101.604 317.361 102.311 316.906C103.018 316.451 103.72 316.819 103.881 317.728Z" fill="#4F64D9"/>
<path d="M105.862 312.792C106.022 313.701 105.579 314.806 104.872 315.261C104.165 315.716 103.462 315.348 103.302 314.439C103.142 313.53 103.585 312.425 104.292 311.97C104.999 311.515 105.702 311.883 105.862 312.792Z" fill="#4F64D9"/>
<path d="M100.743 316.082C100.903 316.991 100.46 318.096 99.7526 318.551C99.0456 319.006 98.3426 318.638 98.1826 317.729C98.0226 316.82 98.4656 315.715 99.1726 315.26C99.8796 314.806 100.583 315.174 100.743 316.082Z" fill="#4F64D9"/>
<path d="M127.32 31.689L116.573 37.894C116.626 37.414 116.663 36.938 116.663 36.471V33.358C116.663 27.818 112.773 25.572 107.975 28.342C106.032 29.464 104.244 31.242 102.797 33.321C102.011 26.354 96.5452 23.759 89.9062 27.592C82.7282 31.736 76.9082 41.816 76.9082 50.105V54.763C76.9082 56.91 77.3052 58.718 78.0082 60.159L69.0812 65.313C66.4192 66.85 64.2622 70.587 64.2622 73.66C64.2622 76.733 66.4202 77.979 69.0812 76.442L127.318 42.819C129.98 41.282 132.137 37.545 132.137 34.472C132.139 31.398 129.981 30.152 127.32 31.689Z" fill="#F0F0F0"/>
<path d="M350.667 311.108L348.71 309.984L350.129 309.344C350.129 309.344 351.245 309.638 351.271 309.69C351.297 309.742 351.193 310.46 351.193 310.46L350.667 311.108Z" fill="#E0E0E0"/>
<path d="M350.667 311.108L348.71 309.984L350.129 309.344C350.129 309.344 351.245 309.638 351.271 309.69C351.297 309.742 351.193 310.46 351.193 310.46L350.667 311.108Z" fill="#4F64D9"/>
<path opacity="0.1" d="M350.667 311.108L348.71 309.984L350.129 309.344C350.129 309.344 351.245 309.638 351.271 309.69C351.297 309.742 351.193 310.46 351.193 310.46L350.667 311.108Z" fill="white"/>
<path d="M276.254 348.598C277.832 349.509 280.39 349.509 281.967 348.598L346.108 311.564L250.092 256.123L247.849 254.825L183.71 291.859C182.138 292.772 182.138 294.256 183.71 295.158L276.254 348.598Z" fill="#4F64D9"/>
<path opacity="0.8" d="M276.254 348.598C277.832 349.509 280.39 349.509 281.967 348.598L346.108 311.564L250.092 256.123L247.849 254.825L183.71 291.859C182.138 292.772 182.138 294.256 183.71 295.158L276.254 348.598Z" fill="white"/>
<path d="M300.338 278.64L322.705 291.514L337.185 283.154L354.03 292.885C354.03 292.885 354.03 303.554 354.03 305.025C354.03 306.497 352.379 308.593 351.779 308.248C351.779 308.248 350.46 308.518 348.559 309.391C346.658 310.265 343.911 312.83 343.911 312.83L292.515 283.157L300.338 278.64Z" fill="#E0E0E0"/>
<path d="M300.338 278.64L322.705 291.514L337.185 283.154L354.03 292.885C354.03 292.885 354.03 303.554 354.03 305.025C354.03 306.497 352.379 308.593 351.779 308.248C351.779 308.248 350.46 308.518 348.559 309.391C346.658 310.265 343.911 312.83 343.911 312.83L292.515 283.157L300.338 278.64Z" fill="#4F64D9"/>
<path opacity="0.1" d="M300.338 278.64L322.705 291.514L337.185 283.154L354.03 292.885C354.03 292.885 354.03 303.554 354.03 305.025C354.03 306.497 352.379 308.593 351.779 308.248C351.779 308.248 350.46 308.518 348.559 309.391C346.658 310.265 343.911 312.83 343.911 312.83L292.515 283.157L300.338 278.64Z" fill="white"/>
<path d="M281.969 348.595L285.84 346.352L343.909 312.826C343.931 312.1 344.228 311.386 344.701 310.748C345.361 309.824 346.35 309.033 347.241 308.516C347.923 308.12 348.945 307.658 349.979 307.658C350.683 307.658 351.298 307.878 351.782 308.252C352.156 307.746 352.849 305.8 352.849 303.447H355.048C355.048 306.482 354.047 309.528 352.816 310.232L351.705 310.881C351.078 311.244 350.583 311.266 350.583 310.925V310.331C350.583 309.671 349.582 309.704 348.34 310.419C347.108 311.134 346.108 312.244 346.108 312.904V313.498C346.108 313.839 345.25 314.597 344.206 315.202L288.05 347.629L281.969 351.137C281.969 351.137 281.958 351.137 281.958 351.148C281.166 351.588 280.144 351.819 279.11 351.819V349.279C280.144 349.276 281.178 349.057 281.969 348.595Z" fill="#4F64D9"/>
<path opacity="0.6" d="M281.969 348.595L285.84 346.352L343.909 312.826C343.931 312.1 344.228 311.386 344.701 310.748C345.361 309.824 346.35 309.033 347.241 308.516C347.923 308.12 348.945 307.658 349.979 307.658C350.683 307.658 351.298 307.878 351.782 308.252C352.156 307.746 352.849 305.8 352.849 303.447H355.048C355.048 306.482 354.047 309.528 352.816 310.232L351.705 310.881C351.078 311.244 350.583 311.266 350.583 310.925V310.331C350.583 309.671 349.582 309.704 348.34 310.419C347.108 311.134 346.108 312.244 346.108 312.904V313.498C346.108 313.839 345.25 314.597 344.206 315.202L288.05 347.629L281.969 351.137C281.969 351.137 281.958 351.137 281.958 351.148C281.166 351.588 280.144 351.819 279.11 351.819V349.279C280.144 349.276 281.178 349.057 281.969 348.595Z" fill="white"/>
<path d="M182.534 293.472V296.056C182.534 296.65 182.908 297.233 183.667 297.683L183.711 297.705L270.182 347.626L276.252 351.134V351.145C276.252 351.145 276.263 351.134 276.263 351.145C277.055 351.585 278.077 351.816 279.111 351.816V349.276C278.077 349.276 277.044 349.056 276.252 348.594L272.392 346.362H272.381L183.71 295.154C182.87 294.667 182.537 294.096 182.534 293.472Z" fill="#4F64D9"/>
<path opacity="0.1" d="M182.534 293.472V296.056C182.534 296.65 182.908 297.233 183.667 297.683L183.711 297.705L270.182 347.626L276.252 351.134V351.145C276.252 351.145 276.263 351.134 276.263 351.145C277.055 351.585 278.077 351.816 279.111 351.816V349.276C278.077 349.276 277.044 349.056 276.252 348.594L272.392 346.362H272.381L183.71 295.154C182.87 294.667 182.537 294.096 182.534 293.472Z" fill="white"/>
<path d="M279.111 332.156V346.978C279.804 346.978 280.496 346.835 281.013 346.527L288.05 342.47L341.644 311.528L341.655 296.046L279.111 332.156Z" fill="white"/>
<path d="M185.316 279.859V291.273C185.316 292.483 186.174 293.967 187.218 294.572L270.182 342.47L277.208 346.527C277.725 346.835 278.418 346.978 279.11 346.978V333.728L185.316 279.859Z" fill="#F0F0F0"/>
<path d="M341.644 311.528C341.666 310.802 341.974 310.089 342.447 309.451C343.107 308.527 344.096 307.736 344.987 307.219C345.669 306.823 346.691 306.361 347.725 306.361C348.429 306.361 349.045 306.581 349.528 306.955V291.5L341.655 296.045L341.644 311.528Z" fill="#455A64"/>
<path d="M344.789 307.345C343.952 307.861 343.059 308.594 342.447 309.45C341.974 310.088 341.666 310.802 341.644 311.527L341.654 296.77H344.788V307.345H344.789Z" fill="#F5F5F5"/>
<path d="M250.092 238.031L346.108 293.472C346.108 293.472 346.108 294.044 346.108 294.758C346.108 295.473 347.109 295.737 348.34 295.022C349.582 294.307 350.583 293.417 350.583 292.185L350.704 290.964L252.874 234.489L252.478 234.258C252.379 234.445 252.313 234.654 252.313 234.852V235.446C252.314 236.162 251.324 237.305 250.092 238.031Z" fill="#4F64D9"/>
<path opacity="0.6" d="M250.092 238.031L346.108 293.472C346.108 293.472 346.108 294.044 346.108 294.758C346.108 295.473 347.109 295.737 348.34 295.022C349.582 294.307 350.583 293.417 350.583 292.185L350.704 290.964L252.874 234.489L252.478 234.258C252.379 234.445 252.313 234.654 252.313 234.852V235.446C252.314 236.162 251.324 237.305 250.092 238.031Z" fill="white"/>
<path d="M281.967 330.507L344.686 294.294C345.483 293.876 346.211 293.541 346.518 293.702L346.108 293.473L250.092 238.032C250.092 238.032 249.528 237.709 248.97 237.385C248.351 237.026 246.997 237.227 245.945 237.834L183.711 273.768C182.139 274.681 182.139 276.165 183.711 277.067L276.255 330.507C277.832 331.417 280.39 331.418 281.967 330.507Z" fill="#4F64D9"/>
<path opacity="0.8" d="M281.967 330.507L344.686 294.294C345.483 293.876 346.211 293.541 346.518 293.702L346.108 293.473L250.092 238.032C250.092 238.032 249.528 237.709 248.97 237.385C248.351 237.026 246.997 237.227 245.945 237.834L183.711 273.768C182.139 274.681 182.139 276.165 183.711 277.067L276.255 330.507C277.832 331.417 280.39 331.418 281.967 330.507Z" fill="white"/>
<path d="M252.479 234.259L252.875 234.49L350.705 290.965C350.705 290.965 350.771 290.811 350.914 290.701C351.002 290.646 351.112 290.591 351.244 290.514L351.948 290.107C352.212 289.953 352.509 289.777 352.817 289.601C353.224 289.37 353.598 289.414 353.928 289.7C353.972 289.722 354.005 289.755 354.038 289.799C354.148 289.909 354.247 290.052 354.335 290.206C354.434 290.371 354.522 290.558 354.588 290.756C354.665 290.954 354.731 291.174 354.786 291.394C354.841 291.636 354.885 291.878 354.929 292.142C354.962 292.285 354.973 292.439 354.984 292.593C354.995 292.714 355.006 292.824 355.017 292.956C355.039 293.231 355.05 293.517 355.05 293.814V291.065C355.05 289.548 353.763 287.579 352.191 286.667L259.639 233.227C258.056 232.314 255.779 232.161 254.548 232.864L253.382 233.546L253.338 233.568C253.261 233.623 253.063 233.733 252.843 233.854C252.843 233.854 252.832 233.854 252.832 233.865C252.698 233.941 252.567 234.084 252.479 234.259Z" fill="#4F64D9"/>
<path opacity="0.8" d="M252.479 234.259L252.875 234.49L350.705 290.965C350.705 290.965 350.771 290.811 350.914 290.701C351.002 290.646 351.112 290.591 351.244 290.514L351.948 290.107C352.212 289.953 352.509 289.777 352.817 289.601C353.224 289.37 353.598 289.414 353.928 289.7C353.972 289.722 354.005 289.755 354.038 289.799C354.148 289.909 354.247 290.052 354.335 290.206C354.434 290.371 354.522 290.558 354.588 290.756C354.665 290.954 354.731 291.174 354.786 291.394C354.841 291.636 354.885 291.878 354.929 292.142C354.962 292.285 354.973 292.439 354.984 292.593C354.995 292.714 355.006 292.824 355.017 292.956C355.039 293.231 355.05 293.517 355.05 293.814V291.065C355.05 289.548 353.763 287.579 352.191 286.667L259.639 233.227C258.056 232.314 255.779 232.161 254.548 232.864L253.382 233.546L253.338 233.568C253.261 233.623 253.063 233.733 252.843 233.854C252.843 233.854 252.832 233.854 252.832 233.865C252.698 233.941 252.567 234.084 252.479 234.259Z" fill="white"/>
<path d="M281.947 330.517C281.958 330.517 281.958 330.506 281.958 330.506L285.84 328.263L330.45 302.522L344.69 294.297C345.702 293.703 346.526 293.494 346.581 293.802C346.592 293.813 346.592 293.824 346.592 293.835V294.484C346.592 295.199 347.593 295.199 348.824 294.484C350.034 293.791 350.561 292.934 350.583 292.241V291.537C350.583 291.174 350.726 290.8 350.913 290.701C351.001 290.646 351.122 290.58 351.243 290.514C351.441 290.404 351.683 290.261 351.947 290.107C352.211 289.953 352.508 289.777 352.816 289.601C353.223 289.37 353.597 289.414 353.927 289.7C353.971 289.722 354.004 289.755 354.037 289.799C354.114 289.876 354.18 289.964 354.235 290.063C354.279 290.107 354.301 290.151 354.334 290.206C354.433 290.371 354.521 290.558 354.587 290.756C354.664 290.954 354.73 291.174 354.785 291.394C354.84 291.636 354.884 291.878 354.928 292.142C354.961 292.285 354.972 292.439 354.983 292.593C354.994 292.714 355.005 292.824 355.016 292.956C355.038 293.231 355.049 293.517 355.049 293.814V303.446H352.85V293.814C352.85 293.583 352.839 293.352 352.828 293.132L352.773 292.582C352.773 292.56 352.773 292.549 352.762 292.527C352.564 294.275 350.893 295.837 349.441 296.661C348.792 297.046 347.792 297.497 346.758 297.497C345.988 297.497 345.296 297.222 344.79 296.771L344.592 296.881C344.46 296.958 344.339 297.035 344.207 297.112L288.051 329.539L281.97 333.047C281.97 333.047 281.959 333.047 281.959 333.058C281.948 333.069 281.937 333.069 281.915 333.08C281.134 333.509 280.123 333.729 279.111 333.729V331.191C280.246 331.19 281.149 330.938 281.947 330.517Z" fill="#4F64D9"/>
<path opacity="0.6" d="M281.947 330.517C281.958 330.517 281.958 330.506 281.958 330.506L285.84 328.263L330.45 302.522L344.69 294.297C345.702 293.703 346.526 293.494 346.581 293.802C346.592 293.813 346.592 293.824 346.592 293.835V294.484C346.592 295.199 347.593 295.199 348.824 294.484C350.034 293.791 350.561 292.934 350.583 292.241V291.537C350.583 291.174 350.726 290.8 350.913 290.701C351.001 290.646 351.122 290.58 351.243 290.514C351.441 290.404 351.683 290.261 351.947 290.107C352.211 289.953 352.508 289.777 352.816 289.601C353.223 289.37 353.597 289.414 353.927 289.7C353.971 289.722 354.004 289.755 354.037 289.799C354.114 289.876 354.18 289.964 354.235 290.063C354.279 290.107 354.301 290.151 354.334 290.206C354.433 290.371 354.521 290.558 354.587 290.756C354.664 290.954 354.73 291.174 354.785 291.394C354.84 291.636 354.884 291.878 354.928 292.142C354.961 292.285 354.972 292.439 354.983 292.593C354.994 292.714 355.005 292.824 355.016 292.956C355.038 293.231 355.049 293.517 355.049 293.814V303.446H352.85V293.814C352.85 293.583 352.839 293.352 352.828 293.132L352.773 292.582C352.773 292.56 352.773 292.549 352.762 292.527C352.564 294.275 350.893 295.837 349.441 296.661C348.792 297.046 347.792 297.497 346.758 297.497C345.988 297.497 345.296 297.222 344.79 296.771L344.592 296.881C344.46 296.958 344.339 297.035 344.207 297.112L288.051 329.539L281.97 333.047C281.97 333.047 281.959 333.047 281.959 333.058C281.948 333.069 281.937 333.069 281.915 333.08C281.134 333.509 280.123 333.729 279.111 333.729V331.191C280.246 331.19 281.149 330.938 281.947 330.517Z" fill="white"/>
<path d="M182.534 275.386V277.97C182.534 278.564 182.908 279.147 183.667 279.597L183.711 279.619L270.182 329.54L276.252 333.048V333.059C276.252 333.059 276.263 333.048 276.263 333.059C277.055 333.499 278.077 333.73 279.111 333.73V331.19C278.077 331.19 277.044 330.97 276.252 330.508L272.392 328.276H272.381L183.71 277.068C182.87 276.58 182.537 276.01 182.534 275.386Z" fill="#4F64D9"/>
<path opacity="0.1" d="M182.534 275.386V277.97C182.534 278.564 182.908 279.147 183.667 279.597L183.711 279.619L270.182 329.54L276.252 333.048V333.059C276.252 333.059 276.263 333.048 276.263 333.059C277.055 333.499 278.077 333.73 279.111 333.73V331.19C278.077 331.19 277.044 330.97 276.252 330.508L272.392 328.276H272.381L183.71 277.068C182.87 276.58 182.537 276.01 182.534 275.386Z" fill="white"/>
<path d="M245.945 237.833C246.997 237.226 248.351 237.025 248.97 237.384C249.528 237.708 250.087 238.031 250.087 238.031C251.324 237.305 252.314 236.162 252.314 235.447V234.853C252.314 234.655 252.38 234.446 252.479 234.259C252.567 234.083 252.699 233.94 252.831 233.863C252.831 233.852 252.842 233.852 252.842 233.852C253.062 233.731 253.26 233.621 253.337 233.566L253.381 233.544L254.547 232.862C255.778 232.158 258.055 232.312 259.638 233.225L352.19 286.665C352.223 286.684 352.254 286.71 352.287 286.731L286.898 324.483C285.846 325.09 284.143 325.087 283.093 324.475L189.936 270.173L245.945 237.833Z" fill="#263238"/>
<path d="M292.133 319.033L289.655 317.609C289.655 317.609 291.077 317.157 291.733 317.463C292.39 317.77 292.133 319.033 292.133 319.033Z" fill="#4F64D9"/>
<path opacity="0.7" d="M292.133 319.033L289.655 317.609C289.655 317.609 291.077 317.157 291.733 317.463C292.39 317.77 292.133 319.033 292.133 319.033Z" fill="black"/>
<path d="M293.834 317.474C293.834 317.474 291.828 315.264 289.421 317.474C287.014 319.684 286.889 321.874 285.893 321.838C284.896 321.802 284.911 304.188 284.911 304.188L294.4 313.013L293.834 317.474Z" fill="#4F64D9"/>
<path opacity="0.7" d="M293.834 317.474C293.834 317.474 291.828 315.264 289.421 317.474C287.014 319.684 286.889 321.874 285.893 321.838C284.896 321.802 284.911 304.188 284.911 304.188L294.4 313.013L293.834 317.474Z" fill="black"/>
<path d="M194.405 253.417L194.249 253.327L195.774 252.446L261.248 214.645L356.656 276.391C358.234 277.302 358.513 278.615 357.28 279.324L355.048 280.607L293.845 315.958L293.411 315.642L194.405 253.417Z" fill="#4F64D9"/>
<path opacity="0.5" d="M194.405 253.417L194.249 253.327L195.774 252.446L261.248 214.645L356.656 276.391C358.234 277.302 358.513 278.615 357.28 279.324L355.048 280.607L293.845 315.958L293.411 315.642L194.405 253.417Z" fill="black"/>
<path d="M285.678 295.849L290.417 294.872V313.852C287.558 315.065 285.74 316.213 285.44 318.605L285.678 295.849Z" fill="#455A64"/>
<path d="M292.514 314.103L353.143 279.098C354.195 278.491 355.048 277.014 355.048 275.799V257.089L293.833 292.74C293.833 292.74 293.103 295.387 290.932 296.223C288.761 297.058 290.416 297.898 290.416 297.898V313.853C292.292 313.631 292.514 314.103 292.514 314.103Z" fill="#F0F0F0"/>
<path d="M286.924 295.2C287.551 294.837 288.045 294.815 288.045 295.156V295.75C288.045 296.41 289.046 296.377 290.288 295.662C291.519 294.947 292.534 293.838 292.534 293.179V292.583C292.534 292.242 293.378 291.484 294.422 290.879L195.776 234.358C195.172 234.708 194.249 235.245 194.249 235.245C193.994 235.495 193.874 235.918 193.874 236.062V236.656C193.874 237.316 192.873 238.426 191.642 239.141C190.399 239.856 189.399 239.889 189.399 239.229V238.635C189.399 238.294 188.904 238.316 188.278 238.679L286.924 295.2Z" fill="#4F64D9"/>
<path opacity="0.6" d="M286.924 295.2C287.551 294.837 288.045 294.815 288.045 295.156V295.75C288.045 296.41 289.046 296.377 290.288 295.662C291.519 294.947 292.534 293.838 292.534 293.179V292.583C292.534 292.242 293.378 291.484 294.422 290.879L195.776 234.358C195.172 234.708 194.249 235.245 194.249 235.245C193.994 235.495 193.874 235.918 193.874 236.062V236.656C193.874 237.316 192.873 238.426 191.642 239.141C190.399 239.856 189.399 239.889 189.399 239.229V238.635C189.399 238.294 188.904 238.316 188.278 238.679L286.924 295.2Z" fill="black"/>
<path d="M194.405 235.335L194.249 235.245L195.774 234.364L261.248 196.563L356.656 251.657C358.234 252.568 358.513 253.881 357.28 254.59L355.048 255.873L293.833 292.739L194.405 235.335Z" fill="#4F64D9"/>
<path opacity="0.5" d="M194.405 235.335L194.249 235.245L195.774 234.364L261.248 196.563L356.656 251.657C358.234 252.568 358.513 253.881 357.28 254.59L355.048 255.873L293.833 292.739L194.405 235.335Z" fill="black"/>
<path d="M189.38 238.056L287.948 294.964L284.497 297.663L186.248 240.939C186.674 239.929 187.115 239.397 187.563 239.105L189.38 238.056Z" fill="#4F64D9"/>
<path opacity="0.5" d="M189.38 238.056L287.948 294.964L284.497 297.663L186.248 240.939C186.674 239.929 187.115 239.397 187.563 239.105L189.38 238.056Z" fill="black"/>
<path d="M186.633 266.426C186.572 266.391 186.513 266.348 186.455 266.298C186.411 266.276 186.378 266.243 186.345 266.199C186.268 266.122 186.202 266.034 186.147 265.935C186.103 265.891 186.081 265.847 186.048 265.792C185.949 265.627 185.861 265.44 185.795 265.242C185.718 265.044 185.652 264.824 185.597 264.604C185.542 264.362 185.498 264.12 185.454 263.856C185.421 263.713 185.41 263.559 185.399 263.405C185.388 263.284 185.377 263.174 185.366 263.042C185.344 262.767 185.333 262.481 185.333 262.184V245.9C185.333 244.08 185.693 242.257 186.246 240.936L284.495 297.663L284.91 323.175L186.665 266.443L186.633 266.426Z" fill="#4F64D9"/>
<path opacity="0.7" d="M186.633 266.426C186.572 266.391 186.513 266.348 186.455 266.298C186.411 266.276 186.378 266.243 186.345 266.199C186.268 266.122 186.202 266.034 186.147 265.935C186.103 265.891 186.081 265.847 186.048 265.792C185.949 265.627 185.861 265.44 185.795 265.242C185.718 265.044 185.652 264.824 185.597 264.604C185.542 264.362 185.498 264.12 185.454 263.856C185.421 263.713 185.41 263.559 185.399 263.405C185.388 263.284 185.377 263.174 185.366 263.042C185.344 262.767 185.333 262.481 185.333 262.184V245.9C185.333 244.08 185.693 242.257 186.246 240.936L284.495 297.663L284.91 323.175L186.665 266.443L186.633 266.426Z" fill="black"/>
<path opacity="0.79" d="M284.496 297.664C284.496 297.664 207.121 261.449 200.078 258.131C195.432 255.942 193.148 260.54 194.248 265.302C195.209 269.462 199.316 273.749 199.316 273.749L186.665 266.444L186.632 266.426C186.571 266.391 186.512 266.348 186.454 266.298C186.41 266.276 186.377 266.243 186.344 266.199C186.267 266.122 186.201 266.034 186.146 265.935C186.102 265.891 186.08 265.847 186.047 265.792C185.948 265.627 185.86 265.44 185.794 265.242C185.717 265.044 185.651 264.824 185.596 264.604C185.541 264.362 185.497 264.12 185.453 263.856C185.42 263.713 185.409 263.559 185.398 263.405C185.387 263.284 185.376 263.174 185.365 263.042C185.343 262.767 185.332 262.481 185.332 262.184V245.9C185.332 244.08 185.692 242.257 186.245 240.936L284.496 297.664Z" fill="#263238"/>
<path d="M283.586 302.633H285.785C285.785 300.28 286.478 298.334 286.852 297.828C287.336 298.202 287.952 298.422 288.655 298.422C289.689 298.422 290.711 297.96 291.393 297.564C292.284 297.047 293.273 296.256 293.933 295.332C293.977 295.266 294.032 295.2 294.065 295.134C294.461 294.551 294.703 293.902 294.725 293.254L352.794 259.728L354.762 258.584L357.28 257.132C357.797 256.835 358.05 256.428 358.05 255.999V253.426C358.05 253.932 357.753 254.306 357.28 254.591L357.247 254.613L350.583 258.451L294.427 290.878C293.382 291.483 292.525 292.242 292.525 292.582V293.176C292.525 293.462 292.338 293.836 292.008 294.221C291.612 294.727 290.985 295.255 290.293 295.662C289.05 296.377 288.05 296.41 288.05 295.75V295.156C288.05 294.815 287.555 294.837 286.928 295.2L285.817 295.849C284.587 296.552 283.586 299.598 283.586 302.633Z" fill="#4F64D9"/>
<path d="M285.785 302.633V318.917C285.785 319.148 285.796 319.379 285.807 319.599L285.862 320.149C285.862 320.171 285.862 320.182 285.873 320.204C286.071 318.456 287.742 316.894 289.194 316.07C289.843 315.685 290.843 315.234 291.877 315.234C292.647 315.234 293.339 315.509 293.845 315.96L294.043 315.85C294.175 315.773 294.296 315.696 294.428 315.619L350.584 283.192C350.584 283.192 352.057 282.345 353.806 281.334C354.103 281.158 354.422 280.982 354.73 280.795C355.676 280.245 356.632 279.695 357.446 279.223C357.82 278.948 358.051 278.607 358.051 278.167V278.871V280.74C358.051 281.103 357.864 281.455 357.49 281.73C357.49 281.741 357.479 281.741 357.468 281.752C357.149 281.939 356.808 282.126 356.467 282.335C356.258 282.456 356.049 282.577 355.84 282.698C355.466 282.907 355.103 283.127 354.762 283.325C354.52 283.468 354.3 283.6 354.091 283.71C353.915 283.809 353.761 283.908 353.618 283.985C353.112 284.282 352.793 284.469 352.793 284.469L308.183 310.21L293.943 318.435C292.931 319.029 292.107 319.238 292.052 318.93C292.043 318.887 292.041 318.836 292.041 318.825V318.249C292.041 317.534 291.04 317.534 289.809 318.249C288.599 318.942 288.071 319.799 288.05 320.492V321.196C288.05 321.559 287.907 321.933 287.72 322.032C287.632 322.087 287.511 322.153 287.39 322.219C287.192 322.329 286.95 322.472 286.686 322.626C286.422 322.78 286.125 322.956 285.817 323.132C285.41 323.363 285.036 323.319 284.706 323.033C284.662 323.011 284.629 322.978 284.596 322.934C284.519 322.857 284.453 322.769 284.398 322.67V322.659C284.354 322.615 284.332 322.582 284.299 322.527C284.2 322.362 284.112 322.175 284.046 321.977C283.969 321.779 283.903 321.559 283.848 321.339C283.793 321.097 283.749 320.855 283.705 320.591C283.672 320.448 283.661 320.294 283.65 320.14C283.639 320.019 283.628 319.909 283.617 319.777C283.595 319.502 283.584 319.216 283.584 318.919V302.635H285.785V302.633Z" fill="#4F64D9"/>
<g opacity="0.6">
<path d="M283.586 302.633H285.785C285.785 300.28 286.478 298.334 286.852 297.828C287.336 298.202 287.952 298.422 288.655 298.422C289.689 298.422 290.711 297.96 291.393 297.564C292.284 297.047 293.273 296.256 293.933 295.332C293.977 295.266 294.032 295.2 294.065 295.134C294.461 294.551 294.703 293.902 294.725 293.254L352.794 259.728L354.762 258.584L357.28 257.132C357.797 256.835 358.05 256.428 358.05 255.999V253.426C358.05 253.932 357.753 254.306 357.28 254.591L357.247 254.613L350.583 258.451L294.427 290.878C293.382 291.483 292.525 292.242 292.525 292.582V293.176C292.525 293.462 292.338 293.836 292.008 294.221C291.612 294.727 290.985 295.255 290.293 295.662C289.05 296.377 288.05 296.41 288.05 295.75V295.156C288.05 294.815 287.555 294.837 286.928 295.2L285.817 295.849C284.587 296.552 283.586 299.598 283.586 302.633Z" fill="black"/>
<path d="M285.785 302.633V318.917C285.785 319.148 285.796 319.379 285.807 319.599L285.862 320.149C285.862 320.171 285.862 320.182 285.873 320.204C286.071 318.456 287.742 316.894 289.194 316.07C289.843 315.685 290.843 315.234 291.877 315.234C292.647 315.234 293.339 315.509 293.845 315.96L294.043 315.85C294.175 315.773 294.296 315.696 294.428 315.619L350.584 283.192C350.584 283.192 352.057 282.345 353.806 281.334C354.103 281.158 354.422 280.982 354.73 280.795C355.676 280.245 356.632 279.695 357.446 279.223C357.82 278.948 358.051 278.607 358.051 278.167V278.871V280.74C358.051 281.103 357.864 281.455 357.49 281.73C357.49 281.741 357.479 281.741 357.468 281.752C357.149 281.939 356.808 282.126 356.467 282.335C356.258 282.456 356.049 282.577 355.84 282.698C355.466 282.907 355.103 283.127 354.762 283.325C354.52 283.468 354.3 283.6 354.091 283.71C353.915 283.809 353.761 283.908 353.618 283.985C353.112 284.282 352.793 284.469 352.793 284.469L308.183 310.21L293.943 318.435C292.931 319.029 292.107 319.238 292.052 318.93C292.043 318.887 292.041 318.836 292.041 318.825V318.249C292.041 317.534 291.04 317.534 289.809 318.249C288.599 318.942 288.071 319.799 288.05 320.492V321.196C288.05 321.559 287.907 321.933 287.72 322.032C287.632 322.087 287.511 322.153 287.39 322.219C287.192 322.329 286.95 322.472 286.686 322.626C286.422 322.78 286.125 322.956 285.817 323.132C285.41 323.363 285.036 323.319 284.706 323.033C284.662 323.011 284.629 322.978 284.596 322.934C284.519 322.857 284.453 322.769 284.398 322.67V322.659C284.354 322.615 284.332 322.582 284.299 322.527C284.2 322.362 284.112 322.175 284.046 321.977C283.969 321.779 283.903 321.559 283.848 321.339C283.793 321.097 283.749 320.855 283.705 320.591C283.672 320.448 283.661 320.294 283.65 320.14C283.639 320.019 283.628 319.909 283.617 319.777C283.595 319.502 283.584 319.216 283.584 318.919V302.635H285.785V302.633Z" fill="black"/>
</g>
<path d="M186.25 240.934L279.627 294.847L350.21 254.096C351.266 253.491 351.266 252.502 350.21 251.897L257.812 198.545L195.784 234.359H195.773C195.168 234.711 194.244 235.25 194.244 235.25C193.991 235.492 193.87 235.921 193.87 236.064V236.658C193.87 237.318 192.869 238.428 191.638 239.143C191.572 239.187 191.506 239.209 191.44 239.242L189.384 238.054L188.405 238.615C188.361 238.637 188.328 238.648 188.273 238.681L188.284 238.692L187.558 239.11C187.119 239.395 186.668 239.933 186.25 240.934Z" fill="#263238"/>
<path d="M344.955 254.504L342.145 253.004L344.704 252.392C345.225 252.985 345.258 253.702 344.955 254.504Z" fill="#E0E0E0"/>
<path opacity="0.5" d="M344.955 254.504L342.145 253.004L344.704 252.392C345.225 252.985 345.258 253.702 344.955 254.504Z" fill="#E0E0E0"/>
<path d="M270.528 291.986C272.106 292.897 274.664 292.897 276.242 291.986L340.383 254.952L244.367 194.256L242.124 192.958L177.985 235.247C176.413 236.16 176.413 237.644 177.985 238.546L270.528 291.986Z" fill="#4F64D9"/>
<path d="M294.612 216.773L343.069 249.614L316.979 229.647L331.459 221.287L348.303 231.018C348.303 231.018 348.303 246.941 348.303 248.413C348.303 249.885 346.653 251.981 346.053 251.636C346.053 251.636 344.734 251.906 342.833 252.779C340.931 253.653 338.184 256.218 338.184 256.218L286.788 221.29L294.612 216.773Z" fill="#4F64D9"/>
<path opacity="0.2" d="M294.612 216.773L343.069 249.614L316.979 229.647L331.459 221.287L348.303 231.018C348.303 231.018 348.303 246.941 348.303 248.413C348.303 249.885 346.653 251.981 346.053 251.636C346.053 251.636 344.734 251.906 342.833 252.779C340.931 253.653 338.184 256.218 338.184 256.218L286.788 221.29L294.612 216.773Z" fill="black"/>
<path d="M273.385 270.289V290.366C274.078 290.366 274.77 290.223 275.287 289.915L282.324 285.858L335.918 254.916L335.929 234.179L273.385 270.289Z" fill="white"/>
<path d="M179.59 217.992V234.661C179.59 235.871 180.448 237.355 181.492 237.96L264.456 285.858L271.482 289.915C271.999 290.223 272.692 290.366 273.384 290.366V271.861L179.59 217.992Z" fill="#F0F0F0"/>
<path d="M335.918 254.916C335.94 254.19 336.248 253.477 336.721 252.839C337.381 251.915 338.37 251.124 339.261 250.607C339.943 250.211 340.965 249.749 341.999 249.749C342.703 249.749 343.318 249.801 343.802 250.175V229.634L335.929 234.179L335.918 254.916Z" fill="#455A64"/>
<path d="M339.063 250.733C338.226 251.249 337.333 251.981 336.721 252.838C336.248 253.476 335.94 254.189 335.918 254.915L335.928 234.904H339.062L339.063 250.733Z" fill="#F5F5F5"/>
<path d="M244.367 176.164L340.383 231.605C340.383 231.605 340.383 232.177 340.383 232.891C340.383 233.606 341.384 233.87 342.615 233.155C343.858 232.44 344.858 231.55 344.858 230.318L344.979 229.097L247.149 172.622L246.753 172.391C246.654 172.578 246.588 172.787 246.588 172.985V173.579C246.588 174.295 245.598 175.438 244.367 176.164Z" fill="#4F64D9"/>
<path opacity="0.2" d="M244.367 176.164L340.383 231.605C340.383 231.605 340.383 232.177 340.383 232.891C340.383 233.606 341.384 233.87 342.615 233.155C343.858 232.44 344.858 231.55 344.858 230.318L344.979 229.097L247.149 172.622L246.753 172.391C246.654 172.578 246.588 172.787 246.588 172.985V173.579C246.588 174.295 245.598 175.438 244.367 176.164Z" fill="black"/>
<path d="M276.242 268.639L338.961 232.426C339.758 232.008 340.486 231.673 340.793 231.834L340.383 231.605L244.367 176.164C244.367 176.164 243.803 175.841 243.245 175.517C242.626 175.158 241.272 175.359 240.22 175.966L177.986 211.901C176.414 212.814 176.414 214.298 177.986 215.2L270.53 268.64C272.106 269.55 274.664 269.551 276.242 268.639Z" fill="#4F64D9"/>
<path d="M246.753 172.393L247.149 172.624L344.979 229.099C344.979 229.099 345.045 228.945 345.188 228.835C345.276 228.78 345.386 228.725 345.518 228.648L346.222 228.241C346.486 228.087 346.783 227.911 347.091 227.735C347.498 227.504 347.872 227.548 348.202 227.834C348.246 227.856 348.279 227.889 348.312 227.933C348.422 228.043 348.521 228.186 348.609 228.34C348.708 228.505 348.796 228.692 348.862 228.89C348.939 229.088 349.005 229.308 349.06 229.528C349.115 229.77 349.159 230.012 349.203 230.276C349.236 230.419 349.247 230.573 349.258 230.727C349.269 230.848 349.28 230.958 349.291 231.09C349.313 231.365 349.324 231.651 349.324 231.948V229.199C349.324 227.682 348.038 225.713 346.465 224.801L253.913 171.361C252.33 170.448 250.053 170.295 248.822 170.998L247.656 171.68L247.612 171.702C247.535 171.757 247.337 171.867 247.117 171.988C247.117 171.988 247.106 171.988 247.106 171.999C246.973 172.074 246.841 172.217 246.753 172.393Z" fill="#4F64D9"/>
<path d="M276.244 291.983L280.115 289.74L338.184 256.214C338.206 255.488 338.503 254.774 338.976 254.136C339.636 253.212 340.625 252.421 341.516 251.904C342.198 251.508 343.22 251.046 344.254 251.046C344.958 251.046 345.573 251.266 346.057 251.64C346.431 251.134 347.124 249.188 347.124 246.835H349.323C349.323 249.87 348.322 252.916 347.091 253.62L345.98 254.269C345.353 254.632 344.858 254.654 344.858 254.313V253.719C344.858 253.059 343.857 253.092 342.615 253.807C341.383 254.522 340.383 255.632 340.383 256.292V256.886C340.383 257.227 339.525 257.986 338.481 258.59L282.325 291.017L276.244 294.525C276.244 294.525 276.233 294.525 276.233 294.536C275.441 294.976 274.419 295.207 273.385 295.207V292.667C274.418 292.664 275.452 292.444 276.244 291.983Z" fill="#4F64D9"/>
<path opacity="0.4" d="M276.244 291.983L280.115 289.74L338.184 256.214C338.206 255.488 338.503 254.774 338.976 254.136C339.636 253.212 340.625 252.421 341.516 251.904C342.198 251.508 343.22 251.046 344.254 251.046C344.958 251.046 345.573 251.266 346.057 251.64C346.431 251.134 347.124 249.188 347.124 246.835H349.323C349.323 249.87 348.322 252.916 347.091 253.62L345.98 254.269C345.353 254.632 344.858 254.654 344.858 254.313V253.719C344.858 253.059 343.857 253.092 342.615 253.807C341.383 254.522 340.383 255.632 340.383 256.292V256.886C340.383 257.227 339.525 257.986 338.481 258.59L282.325 291.017L276.244 294.525C276.244 294.525 276.233 294.525 276.233 294.536C275.441 294.976 274.419 295.207 273.385 295.207V292.667C274.418 292.664 275.452 292.444 276.244 291.983Z" fill="black"/>
<path d="M276.222 268.651C276.222 268.651 276.233 268.64 276.244 268.64L280.115 266.397L324.725 240.656L338.965 232.431C339.977 231.837 340.801 231.628 340.856 231.936C340.867 231.947 340.867 231.958 340.867 231.969V232.618C340.867 233.333 341.868 233.333 343.099 232.618C344.309 231.925 344.836 231.068 344.858 230.375V229.671C344.858 229.308 345.001 228.934 345.188 228.835C345.276 228.78 345.397 228.714 345.518 228.648C345.716 228.538 345.958 228.395 346.222 228.241C346.486 228.087 346.783 227.911 347.091 227.735C347.498 227.504 347.872 227.548 348.202 227.834C348.246 227.856 348.279 227.889 348.312 227.933C348.389 228.01 348.455 228.098 348.51 228.197C348.554 228.241 348.576 228.285 348.609 228.34C348.708 228.505 348.796 228.692 348.862 228.89C348.939 229.088 349.005 229.308 349.06 229.528C349.115 229.77 349.159 230.012 349.203 230.276C349.236 230.419 349.247 230.573 349.258 230.727C349.269 230.848 349.28 230.958 349.291 231.09C349.313 231.365 349.324 231.651 349.324 231.948V246.835H347.125V231.948C347.125 231.717 347.114 231.486 347.103 231.266L347.048 230.716C347.048 230.694 347.048 230.683 347.037 230.661C346.839 232.409 345.168 233.971 343.716 234.795C343.067 235.18 342.067 235.631 341.033 235.631C340.263 235.631 339.57 235.356 339.065 234.905L338.867 235.015C338.735 235.092 338.614 235.169 338.482 235.246L282.326 267.673L276.245 271.181C276.245 271.181 276.234 271.181 276.234 271.192C276.223 271.203 276.212 271.203 276.19 271.214C275.409 271.643 274.398 271.863 273.386 271.863V269.325C274.521 269.323 275.424 269.071 276.222 268.651Z" fill="#4F64D9"/>
<path opacity="0.4" d="M276.222 268.651C276.222 268.651 276.233 268.64 276.244 268.64L280.115 266.397L324.725 240.656L338.965 232.431C339.977 231.837 340.801 231.628 340.856 231.936C340.867 231.947 340.867 231.958 340.867 231.969V232.618C340.867 233.333 341.868 233.333 343.099 232.618C344.309 231.925 344.836 231.068 344.858 230.375V229.671C344.858 229.308 345.001 228.934 345.188 228.835C345.276 228.78 345.397 228.714 345.518 228.648C345.716 228.538 345.958 228.395 346.222 228.241C346.486 228.087 346.783 227.911 347.091 227.735C347.498 227.504 347.872 227.548 348.202 227.834C348.246 227.856 348.279 227.889 348.312 227.933C348.389 228.01 348.455 228.098 348.51 228.197C348.554 228.241 348.576 228.285 348.609 228.34C348.708 228.505 348.796 228.692 348.862 228.89C348.939 229.088 349.005 229.308 349.06 229.528C349.115 229.77 349.159 230.012 349.203 230.276C349.236 230.419 349.247 230.573 349.258 230.727C349.269 230.848 349.28 230.958 349.291 231.09C349.313 231.365 349.324 231.651 349.324 231.948V246.835H347.125V231.948C347.125 231.717 347.114 231.486 347.103 231.266L347.048 230.716C347.048 230.694 347.048 230.683 347.037 230.661C346.839 232.409 345.168 233.971 343.716 234.795C343.067 235.18 342.067 235.631 341.033 235.631C340.263 235.631 339.57 235.356 339.065 234.905L338.867 235.015C338.735 235.092 338.614 235.169 338.482 235.246L282.326 267.673L276.245 271.181C276.245 271.181 276.234 271.181 276.234 271.192C276.223 271.203 276.212 271.203 276.19 271.214C275.409 271.643 274.398 271.863 273.386 271.863V269.325C274.521 269.323 275.424 269.071 276.222 268.651Z" fill="black"/>
<path d="M176.808 213.519V216.103C176.808 216.697 177.182 217.28 177.941 217.73L177.985 217.752L264.456 267.673L270.526 271.181V271.192C270.526 271.192 270.537 271.181 270.537 271.192C271.329 271.632 272.351 271.863 273.385 271.863V269.323C272.351 269.323 271.318 269.103 270.526 268.641L266.666 266.409H266.655L177.984 215.201C177.145 214.713 176.811 214.143 176.808 213.519Z" fill="#4F64D9"/>
<path opacity="0.2" d="M176.808 213.519V216.103C176.808 216.697 177.182 217.28 177.941 217.73L177.985 217.752L264.456 267.673L270.526 271.181V271.192C270.526 271.192 270.537 271.181 270.537 271.192C271.329 271.632 272.351 271.863 273.385 271.863V269.323C272.351 269.323 271.318 269.103 270.526 268.641L266.666 266.409H266.655L177.984 215.201C177.145 214.713 176.811 214.143 176.808 213.519Z" fill="black"/>
<path d="M176.808 236.86V239.444C176.808 240.038 177.182 240.621 177.941 241.071L177.985 241.093L264.456 291.014L270.526 294.522V294.533C270.526 294.533 270.537 294.522 270.537 294.533C271.329 294.973 272.351 295.204 273.385 295.204V292.664C272.351 292.664 271.318 292.444 270.526 291.982L266.666 289.75H266.655L177.984 238.542C177.145 238.055 176.811 237.484 176.808 236.86Z" fill="#4F64D9"/>
<path opacity="0.2" d="M176.808 236.86V239.444C176.808 240.038 177.182 240.621 177.941 241.071L177.985 241.093L264.456 291.014L270.526 294.522V294.533C270.526 294.533 270.537 294.522 270.537 294.533C271.329 294.973 272.351 295.204 273.385 295.204V292.664C272.351 292.664 271.318 292.444 270.526 291.982L266.666 289.75H266.655L177.984 238.542C177.145 238.055 176.811 237.484 176.808 236.86Z" fill="black"/>
<path d="M216.747 146.128L207.574 162.491L220.952 169.61L230.688 155.114L216.747 146.128Z" fill="#FFA8A7"/>
<path d="M249.322 109.282C244.222 108.411 236.497 108.179 231.476 116.793C226.454 125.407 215.639 146.652 215.639 146.652C215.639 146.652 221.962 154.834 231.107 156.32L246.058 132.598L249.322 109.282Z" fill="#4F64D9"/>
<path d="M237.273 309.639H225.854V329.188H237.273V309.639Z" fill="#FFA8A7"/>
<path d="M204.205 304.877L192.792 305.27L192.22 284.582L203.633 284.19L204.205 304.877Z" fill="#FFA8A7"/>
<path d="M225.854 323.551V321.918C224.761 322.394 222.223 332.08 217.692 336.212C214.09 339.497 209.176 343.292 207.927 346.955C206.627 350.764 214.77 352.867 218.135 352.271C222.045 351.579 228.822 348.825 230.524 346.273C232.225 343.721 233.022 339.956 234.404 338.085C235.786 336.215 238.973 334.126 239.72 331.961C240.131 330.772 239.643 328.167 239.066 325.966C238.537 323.947 237.963 321.727 237.274 321.916C237.272 322.162 237.274 323.161 237.274 323.161C236.445 324.08 234.151 324.992 231.565 325.091C229.893 325.157 225.84 324.825 225.854 323.551Z" fill="#263238"/>
<path d="M192.671 301.749C192.078 301.77 191.595 302.606 190.288 304.022C188.707 305.733 186.122 307.578 183.571 308.855C179.295 310.995 170.982 314.288 167.219 315.983C164.868 317.042 164.979 319.881 167.408 321.497C169.838 323.113 175.704 324.277 182.747 322.702C186.584 321.844 191.579 318.3 194.74 318.491C197.901 318.682 203.817 318.637 206.151 317.028C208.485 315.42 207.551 311.984 206.891 309.032C206.171 305.81 205.141 300.881 204.074 301.101L204.109 302.114C202.736 304.193 195.747 305.042 192.731 303.512L192.671 301.749Z" fill="#263238"/>
<path d="M283.271 190.75C285.773 208.397 282.402 211.785 265.629 228.689C256.61 237.778 242.075 251.113 242.075 251.113C242.075 251.113 242.285 256.748 242.404 269.387C242.508 280.518 237.855 316.742 237.855 316.742C237.855 316.742 230.279 319.929 225.077 316.621C225.077 316.621 222.728 289.672 221.461 275.634C219.741 256.593 218.839 247.055 219.812 242.957C220.669 239.346 237.742 217.795 241.68 211.746L205.403 232.82C205.403 232.82 206.64 242.049 206.459 248.929C206.061 264.039 204.206 294.217 204.206 294.217C204.206 294.217 195.899 297.934 191.779 294.73C191.779 294.73 181.327 228.731 181.327 223.314C181.327 215.083 217.073 190.514 223.838 184.792C227.699 181.527 232.005 178.04 232.005 178.04L283.271 190.75Z" fill="#455A64"/>
<path d="M241.68 211.746C241.68 211.746 235.86 207.444 233.391 199.923C233.391 199.923 233.702 204.991 234.683 208.916C235.664 212.84 205.404 232.821 205.404 232.821L241.68 211.746Z" fill="#37474F"/>
<path d="M261.848 77.7223C263.891 69.0051 258.481 60.282 249.764 58.2387C241.046 56.1955 232.323 61.6059 230.28 70.3232C228.237 79.0404 233.647 87.7635 242.365 89.8068C251.082 91.85 259.805 86.4396 261.848 77.7223Z" fill="#263238"/>
<path d="M280.12 119.101C280.12 119.101 284.129 122.378 284.129 132.738V155.112L283.556 192.731C275.548 201.443 239.53 198.139 230.648 179.143C230.648 179.143 230.718 139.426 230.718 130.531C230.718 121.636 235.675 110.074 249.321 109.281L266.939 113.38L280.12 119.101Z" fill="#263238"/>
<path d="M274.081 85.54C274.081 85.54 271.454 97.882 270.401 99.91C269.347 101.938 267.171 102.514 267.171 102.514L267.355 93.832L274.081 85.54Z" fill="#263238"/>
<path d="M270.784 67.859C270.784 67.859 273.613 67.374 275.819 69.629C277.981 71.84 276.774 78.761 274.081 85.54L269.133 86.108L270.784 67.859Z" fill="#263238"/>
<path d="M267.648 86.112C268.64 86.705 270.056 84.799 271.28 83.518C272.503 82.238 276.498 80.488 278.491 84.687C280.521 88.966 276.732 94.62 273.587 95.607C268.167 97.308 267.354 93.832 267.354 93.832L266.94 113.381C262.269 118.599 246.296 117.354 249.307 112.864L249.322 106.914C249.322 106.914 244.411 107.659 242.016 107.289C238.03 106.673 235.523 103.528 234.314 99.214C232.372 92.284 231.635 86.689 233.282 73.061C235.088 58.123 252.462 57.968 261.844 63.873C271.226 69.778 267.648 86.112 267.648 86.112Z" fill="#FFA8A7"/>
<path d="M253.844 89.531H252.99C249.941 89.531 247.461 87.051 247.461 84.001C247.461 80.952 249.941 78.472 252.99 78.472H253.844C256.893 78.472 259.374 80.952 259.374 84.001C259.374 87.05 256.894 89.531 253.844 89.531ZM252.99 79.404C250.456 79.404 248.393 81.466 248.393 84.001C248.393 86.536 250.456 88.598 252.99 88.598H253.844C256.379 88.598 258.442 86.536 258.442 84.001C258.442 81.466 256.379 79.404 253.844 79.404H252.99Z" fill="#263238"/>
<path d="M236.984 89.531H236.13C233.081 89.531 230.601 87.051 230.601 84.001C230.601 80.952 233.081 78.472 236.13 78.472H236.984C240.033 78.472 242.514 80.952 242.514 84.001C242.514 87.05 240.033 89.531 236.984 89.531ZM236.13 79.404C233.596 79.404 231.534 81.466 231.534 84.001C231.534 86.536 233.597 88.598 236.13 88.598H236.984C239.519 88.598 241.581 86.536 241.581 84.001C241.581 81.466 239.519 79.404 236.984 79.404H236.13Z" fill="#263238"/>
<path d="M247.529 82.91C247.017 82.07 245.871 81.486 244.608 81.422C243.52 81.366 242.56 81.726 242.059 82.384L241.316 81.82C242.013 80.902 243.228 80.417 244.655 80.491C246.241 80.572 247.647 81.313 248.325 82.425L247.529 82.91Z" fill="#263238"/>
<path d="M270.626 82.866H258.862V83.798H270.626V82.866Z" fill="#263238"/>
<path d="M267.648 87.781C268.147 87.791 270.045 84.642 271.28 83.518C272.991 81.961 270.784 67.859 270.784 67.859C270.784 67.859 272.429 64.354 269.133 60.726C266.788 58.146 262.87 57.859 256.18 56.808C252.67 56.256 247.349 55.274 243.844 54.622C239.658 53.844 236.194 53.02 233.239 55.588C230.939 57.587 229.949 61.119 231.187 63.903C231.477 64.556 231.898 65.146 232.376 65.677C233.223 66.619 234.182 67.361 235.388 67.752C235.388 67.752 237.213 69.371 243.562 70.144C249.911 70.917 259.8 69.995 261.151 69.811C262.992 69.559 263.385 71.343 264.378 76.218C265.248 80.497 265.971 87.749 267.648 87.781Z" fill="#382626"/>
<path d="M270.774 68.955L276.773 65.734C275.922 64.015 273.888 63.342 272.232 64.232C270.575 65.122 269.922 67.236 270.774 68.955Z" fill="#263238"/>
<path d="M249.322 106.915C249.322 106.915 258.219 105.123 261.33 103.469C263.412 102.362 265.127 100.444 265.63 99.215C265.63 99.215 265.047 101.855 263.187 104.233C260.912 107.141 249.322 109.283 249.322 109.283V106.915Z" fill="#F28F8F"/>
<path d="M251.46 83.887C251.46 84.91 252.258 85.737 253.243 85.735C254.228 85.732 255.026 84.901 255.026 83.878C255.026 82.855 254.228 82.028 253.243 82.03C252.258 82.033 251.46 82.865 251.46 83.887Z" fill="#263238"/>
<path d="M254.323 76.506L258.137 78.611C258.7 77.515 258.301 76.155 257.248 75.574C256.195 74.993 254.886 75.41 254.323 76.506Z" fill="#263238"/>
<path d="M250.127 96.204L246.057 97.731C246.46 98.898 247.698 99.502 248.822 99.08C249.946 98.658 250.53 97.371 250.127 96.204Z" fill="#F28F8F"/>
<path d="M235.104 78.075L238.582 75.396C237.872 74.4 236.519 74.193 235.558 74.932C234.598 75.672 234.394 77.079 235.104 78.075Z" fill="#263238"/>
<path d="M236.631 83.38C236.631 84.403 237.429 85.23 238.414 85.227C239.398 85.224 240.197 84.393 240.197 83.37C240.197 82.347 239.399 81.52 238.414 81.522C237.43 81.525 236.631 82.357 236.631 83.38Z" fill="#263238"/>
<path d="M245.443 81.949L245.236 92.761L238.845 91.353L245.443 81.949Z" fill="#F28F8F"/>
<path d="M234.516 171.817V172.848C234.516 173.888 233.96 174.852 233.063 175.372L205.291 191.354C204.842 191.614 204.338 191.741 203.833 191.741C203.333 191.741 202.828 191.614 202.38 191.354L151.434 161.942C150.532 161.422 149.976 160.458 149.976 159.418V158.709L203.834 189.804L234.516 171.817Z" fill="#4F64D9"/>
<path opacity="0.6" d="M234.516 171.817V172.848C234.516 173.888 233.96 174.852 233.063 175.372L205.291 191.354C204.842 191.614 204.338 191.741 203.833 191.741C203.333 191.741 202.828 191.614 202.38 191.354L151.434 161.942C150.532 161.422 149.976 160.458 149.976 159.418V158.709L203.834 189.804L234.516 171.817Z" fill="black"/>
<path d="M149.974 158.708L180.182 141.269C180.719 140.959 181.381 140.959 181.918 141.269L234.323 171.529C234.58 171.678 234.58 172.049 234.323 172.197L203.832 189.804L149.974 158.708Z" fill="#4F64D9"/>
<path opacity="0.5" d="M149.974 158.708L180.182 141.269C180.719 140.959 181.381 140.959 181.918 141.269L234.323 171.529C234.58 171.678 234.58 172.049 234.323 172.197L203.832 189.804L149.974 158.708Z" fill="black"/>
<path d="M204.11 187.24L220.403 177.843L172.763 150.337L156.385 159.685L204.11 187.24Z" fill="#263238"/>
<path d="M212.118 161.1L211.818 161.273L203.832 165.883L189.631 157.683L189.335 157.515L197.621 152.732L212.118 161.1Z" fill="#263238"/>
<path d="M211.818 161.273L203.832 165.883L189.631 157.683L197.621 153.073L211.818 161.273Z" fill="#263238"/>
<path opacity="0.7" d="M203.832 189.803V191.741C203.332 191.741 202.827 191.614 202.379 191.354L151.433 161.942C150.531 161.422 149.975 160.458 149.975 159.418V158.709L203.832 189.803Z" fill="black"/>
<path d="M203.011 190.233C202.047 190.605 200.951 190.534 200.038 190.003L149.316 160.718C148.424 160.203 147.812 159.321 147.638 158.306L142.085 125.192C142.054 125.004 142.039 124.815 142.039 124.626C142.039 123.703 142.406 122.821 143.059 122.173L195.77 152.61C196.428 152.993 196.882 153.645 197.009 154.395L203.011 190.233Z" fill="#4F64D9"/>
<path opacity="0.5" d="M203.011 190.233C202.047 190.605 200.951 190.534 200.038 190.003L149.316 160.718C148.424 160.203 147.812 159.321 147.638 158.306L142.085 125.192C142.054 125.004 142.039 124.815 142.039 124.626C142.039 123.703 142.406 122.821 143.059 122.173L195.77 152.61C196.428 152.993 196.882 153.645 197.009 154.395L203.011 190.233Z" fill="black"/>
<path d="M203.832 189.805L203.485 190.004C203.332 190.091 203.174 190.167 203.011 190.234L197.009 154.396C196.882 153.646 196.428 152.994 195.77 152.611L143.059 122.174C143.263 121.97 143.503 121.792 143.763 121.639L196.581 152.132C197.239 152.514 197.693 153.167 197.82 153.917L203.832 189.805Z" fill="#E0E0E0"/>
<path d="M174.444 159.664C174.072 157.447 171.783 154.502 169.332 153.087C166.88 151.672 165.194 152.322 165.566 154.539C165.938 156.756 168.227 159.701 170.679 161.116C173.13 162.531 174.816 161.881 174.444 159.664Z" fill="#4F64D9"/>
<path d="M184.834 181.219C184.832 181.18 184.747 179.399 183.98 176.971C183.205 174.516 180.879 165.084 175.582 163.663C174.954 163.494 174.279 163.429 173.644 163.602C172.171 164.003 171.499 165.53 171.211 166.898C170.788 168.906 171.063 170.975 171.177 173C170.365 172.071 169.408 171.271 168.353 170.633C167.35 170.027 166.31 169.395 165.102 169.471C164.776 169.491 164.409 169.582 164.252 169.869C164.058 170.225 164.295 170.658 164.553 170.97C165.083 171.612 165.731 172.149 166.256 172.795C166.695 173.336 167.041 173.944 167.41 174.535C168.081 175.611 168.832 176.634 169.581 177.657C171.111 179.743 172.752 181.737 174.919 183.181C176.261 184.075 179.463 185.936 182.921 186.368C186.787 186.851 190.549 186.793 192.992 185.936L184.834 181.219Z" fill="#FFA8A7"/>
<path d="M279.063 119.387C275.487 117.553 270.27 124.84 271.931 132.46C273.592 140.08 281.771 166.865 281.771 166.865C281.771 166.865 244.819 170.173 241.681 170.556C239.493 170.823 237.042 169.711 235.015 169.039C232.249 168.122 229.467 167.483 226.744 166.477C226.256 166.297 225.747 166.113 225.229 166.163C224.711 166.213 224.183 166.571 224.12 167.087C224.082 167.396 224.211 167.699 224.348 167.978C225.216 169.749 226.541 171.294 228.159 172.421C228.912 172.945 229.745 173.386 230.402 174.037C230.837 174.468 231.78 175.655 231.436 176.308L216.75 184.759C216.75 184.759 220.136 187.701 232.374 184.271C240.827 181.902 245.238 179.699 245.238 179.699C245.238 179.699 288.784 181.51 296.647 179.123C299.427 178.279 300.433 176.31 298.554 167.345C296.372 156.932 290.204 137.995 288.8 133.028C285.729 122.174 284.976 122.42 279.063 119.387Z" fill="#FFA8A7"/>
<path d="M277.222 117.843C277.222 117.843 283.117 119.498 285.657 122.82C288.107 126.023 298.038 158.488 298.038 158.488C298.038 158.488 290.419 165.534 279.381 163.5C279.381 163.5 271.496 141.146 270.659 135.179C269.132 125.924 273.651 118.643 277.222 117.843Z" fill="#4F64D9"/>
<path d="M245.377 139.517C244.903 137.018 246.465 135.672 248.866 136.511C251.267 137.35 253.599 140.055 254.073 142.555C254.547 145.053 245.851 142.016 245.377 139.517Z" fill="#4F64D9"/>
<path d="M261.87 147.305L254.775 142.799C255.14 144.722 252.549 144.453 250.219 143.64C247.89 142.826 245.039 141.194 244.675 139.272L238.492 139.193C237.926 139.186 237.913 139.929 238.463 140.544C239.993 142.254 243.547 145.277 251.026 147.889C258.515 150.505 261.383 149.694 262.459 148.877C262.842 148.585 262.521 147.718 261.87 147.305Z" fill="#4F64D9"/>
</svg>
